<?xml version="1.0" encoding="UTF-8" standalone="no"?>
<!-- Created with Inkscape (http://www.inkscape.org/) -->

<svg
   xmlns:dc="http://purl.org/dc/elements/1.1/"
   xmlns:cc="http://creativecommons.org/ns#"
   xmlns:rdf="http://www.w3.org/1999/02/22-rdf-syntax-ns#"
   xmlns:svg="http://www.w3.org/2000/svg"
   xmlns="http://www.w3.org/2000/svg"
   xmlns:sodipodi="http://sodipodi.sourceforge.net/DTD/sodipodi-0.dtd"
   xmlns:inkscape="http://www.inkscape.org/namespaces/inkscape"
   width="182.74159"
   height="281.91257"
   viewBox="0 0 182.74159 281.91257"
   id="svg2"
   version="1.1"
   inkscape:version="0.91 r13725"
   sodipodi:docname="astronauta.svg"
   inkscape:export-filename="/home/alumno/Escritorio/ejemploPILAS/imagenes/astronauta.png"
   inkscape:export-xdpi="90"
   inkscape:export-ydpi="90">
  <defs
     id="defs4" />
  <sodipodi:namedview
     id="base"
     pagecolor="#ffffff"
     bordercolor="#666666"
     borderopacity="1.0"
     inkscape:pageopacity="0.0"
     inkscape:pageshadow="2"
     inkscape:zoom="0.80969296"
     inkscape:cx="156.05445"
     inkscape:cy="47.666183"
     inkscape:document-units="px"
     inkscape:current-layer="g6259"
     showgrid="false"
     units="px"
     inkscape:window-width="1440"
     inkscape:window-height="829"
     inkscape:window-x="0"
     inkscape:window-y="26"
     inkscape:window-maximized="1"
     fit-margin-top="0"
     fit-margin-left="0"
     fit-margin-right="0"
     fit-margin-bottom="0" />
  <metadata
     id="metadata7">
    <rdf:RDF>
      <cc:Work
         rdf:about="">
        <dc:format>image/svg+xml</dc:format>
        <dc:type
           rdf:resource="http://purl.org/dc/dcmitype/StillImage" />
        <dc:title></dc:title>
      </cc:Work>
    </rdf:RDF>
  </metadata>
  <g
     inkscape:label="Capa 1"
     inkscape:groupmode="layer"
     id="layer1"
     transform="translate(-29.4804,-529.89607)">
    <g
       id="g6259"
       transform="translate(-328.5196,-61.751804)">
      <path
         inkscape:connector-curvature="0"
         id="path4226"
         d="m 405.13191,691.9352 -3.49279,0.69856 0.69856,9.08127 -18.86108,20.25819 -16.76541,27.24379 1.39712,7.68415 -3.4928,11.17693 4.88991,20.2582 9.08126,16.06685 -10.47837,12.57406 -4.19136,13.97117 4.19136,9.77981 10.47837,5.58847 11.17694,-8.3827 14.66974,-15.36829 4.19134,-16.06684 4.88992,-6.28704 -0.69856,-8.3827 -4.88991,-12.57405 2.09567,-7.68415 16.06685,-21.65531 0,13.27261 -6.28703,17.46396 2.79424,5.58847 -5.58847,-0.69855 -2.79424,10.47838 9.08127,31.43513 2.09567,16.7654 -6.98558,14.66974 3.49279,11.17694 10.47838,3.49279 14.66973,-7.68415 6.98559,-12.57405 2.09567,-22.35387 6.98559,-6.98559 -2.79424,-11.8755 2.79424,-11.8755 12.57405,-21.65531 0.69856,-14.66973 9.08126,-11.17694 -1.39711,-15.36828 -34.92794,-0.69857 -19.55964,-3.49279 -10.47838,-7.68414 -4.88991,-16.76541 z"
         style="fill:#e1dee5;fill-opacity:1;fill-rule:evenodd;stroke:none;stroke-width:1px;stroke-linecap:butt;stroke-linejoin:miter;stroke-opacity:1" />
      <path
         sodipodi:nodetypes="ccccsccccsscscc"
         inkscape:connector-curvature="0"
         id="path6207"
         d="m 379.79513,808.17216 -2.77574,4.05685 -1.49463,9.39481 3.84333,3.84334 c 0,0 -0.42703,7.25963 0.42704,7.25963 0.85407,0 6.61907,0.21352 6.61907,0.21352 l 0.19835,4.87429 3.59318,-0.17688 8.37903,-9.60834 c 0,0 6.3667,-5.99331 6.3667,-7.27442 0,-1.28111 3.99653,-12.63239 2.71542,-12.20535 -1.28111,0.42703 -9.29564,2.82533 -9.29564,2.82533 0,0 -6.83259,-0.21352 -8.1137,-0.21352 -1.28112,0 -7.04611,-1.28111 -7.04611,-1.28111 z"
         style="fill:#cec9d5;fill-opacity:1;fill-rule:evenodd;stroke:none;stroke-width:1px;stroke-linecap:butt;stroke-linejoin:miter;stroke-opacity:1" />
      <path
         sodipodi:nodetypes="ccccc"
         inkscape:connector-curvature="0"
         id="path4228"
         d="m 408.17067,808.46266 -6.53155,12.00733 -11.59159,17.97325 15.78294,-16.57613 z"
         style="fill:#4d4d4d;fill-opacity:1;fill-rule:evenodd;stroke:none;stroke-width:1px;stroke-linecap:butt;stroke-linejoin:miter;stroke-opacity:1" />
      <path
         sodipodi:nodetypes="cccccccccsccsscccc"
         inkscape:connector-curvature="0"
         id="path6209"
         d="m 425.38447,835.48107 c -0.85407,2.56223 -2.95891,15.09283 -2.95891,15.09283 l 8.82753,-1.83322 3.84333,5.765 3.20278,5.55148 5.97852,0.85407 2.77574,1.28112 1.92167,0.64055 3.96212,-6.58873 c 0,0 0.52177,-7.07645 0.52177,-8.57109 0,-1.49462 1.49462,-9.18129 1.49462,-9.18129 l 1.04614,-4.43208 c 0,0 -4.88947,1.65634 -5.95706,1.86986 -1.06759,0.21352 -4.48389,1.06759 -5.765,1.06759 -1.28112,0 -5.765,0.85407 -5.765,0.85407 l -3.62982,0.21352 -5.76499,-1.70814 z"
         style="fill:#cec9d5;fill-opacity:1;fill-rule:evenodd;stroke:none;stroke-width:1px;stroke-linecap:butt;stroke-linejoin:miter;stroke-opacity:1" />
      <path
         inkscape:connector-curvature="0"
         id="path4230"
         d="m 455.42813,837.93396 -4.88991,16.7654 c 0,0 -5.58846,13.27262 -2.79423,12.57405 2.79423,-0.69855 6.98558,-11.17693 6.98558,-11.17693 z"
         style="fill:#4d4d4d;fill-opacity:1;fill-rule:evenodd;stroke:none;stroke-width:1px;stroke-linecap:butt;stroke-linejoin:miter;stroke-opacity:1" />
      <path
         sodipodi:nodetypes="cccccccccccccccccccccccc"
         inkscape:connector-curvature="0"
         id="path4232"
         d="m 406.30885,695.87248 1.97582,14.32471 6.42143,11.85494 6.91538,9.38515 14.81866,8.39724 14.32471,5.43352 15.80658,-0.98792 14.81866,-2.46977 3.45769,-0.49396 5.43351,-13.83075 13.83076,-15.80658 13.83075,-47.91369 -11.85493,-4.4456 -8.39724,1.97582 -32.10712,-2.46977 -13.83075,-30.13128 1.97583,-9.38516 -9.38516,-2.46978 -6.91538,23.70986 -13.83075,23.70987 -8.39725,5.43351 -4.4456,9.38516 -4.4456,12.34888 z"
         style="fill:#e1dee5;fill-opacity:1;fill-rule:evenodd;stroke:none;stroke-width:1px;stroke-linecap:butt;stroke-linejoin:miter;stroke-opacity:1" />
      <path
         sodipodi:nodetypes="ccccccccccccccccccccccccc"
         inkscape:connector-curvature="0"
         id="path4234"
         d="m 453.23463,618.32147 -2.46978,13.3368 -15.31262,22.228 -11.85494,8.39724 -1.97582,-3.45769 -11.85493,-2.96373 -12.84284,-12.34889 -11.85494,-4.4456 -7.40933,-17.28844 -12.84285,-9.38516 0.49396,-3.45769 -5.43351,-6.42142 -1.48186,-0.98791 1.48186,-4.44559 7.40933,-5.43352 9.38516,2.46978 8.8912,4.93956 10.37306,0.49395 7.9033,4.4456 4.93955,4.4456 3.95164,7.90329 16.30054,2.46978 8.89119,2.96373 5.92746,-5.43351 z"
         style="fill:#bebbc4;fill-opacity:1;fill-rule:evenodd;stroke:none;stroke-width:1px;stroke-linecap:butt;stroke-linejoin:miter;stroke-opacity:1" />
      <path
         sodipodi:nodetypes="ccccccccccc"
         inkscape:connector-curvature="0"
         id="path4238-9-1"
         d="m 373.80657,598.07436 c -1.21588,-2.43178 -2.02648,-4.86356 -2.02648,-4.86356 l -3.64767,-1.21589 -4.86357,2.43178 -3.24237,3.64767 -2.02648,2.43178 0.81059,3.24237 2.83708,0 2.02649,-1.21588 3.24238,-4.05297 z"
         style="fill:#000000;fill-opacity:1;fill-rule:evenodd;stroke:none;stroke-width:1px;stroke-linecap:butt;stroke-linejoin:miter;stroke-opacity:1" />
      <path
         sodipodi:nodetypes="ccccccccccc"
         inkscape:connector-curvature="0"
         id="path4238-9"
         d="m 378.40036,599.55749 c -1.21589,-2.43178 -2.02648,-4.86356 -2.02648,-4.86356 l -3.64767,-1.21588 -4.86357,2.43177 -3.24237,3.64767 -2.02648,2.43179 0.81059,3.24237 2.83708,0 2.02649,-1.21589 3.24237,-4.05297 z"
         style="fill:#1a1a1a;fill-opacity:1;fill-rule:evenodd;stroke:none;stroke-width:1px;stroke-linecap:butt;stroke-linejoin:miter;stroke-opacity:1" />
      <path
         sodipodi:nodetypes="ccccccccccc"
         inkscape:connector-curvature="0"
         id="path4238"
         d="m 385.16755,602.91005 c -1.48186,-2.96373 -2.46978,-5.92746 -2.46978,-5.92746 l -4.4456,-1.48187 -5.92746,2.96373 -3.95164,4.4456 -2.46978,2.96374 0.98791,3.95164 3.45769,0 2.46977,-1.48186 3.95165,-4.93956 z"
         style="fill:#333333;fill-opacity:1;fill-rule:evenodd;stroke:none;stroke-width:1px;stroke-linecap:butt;stroke-linejoin:miter;stroke-opacity:1" />
      <path
         inkscape:connector-curvature="0"
         id="path4236"
         d="m 382.10503,611.90005 3.95164,3.95165 5.43351,1.97582 c 0,0 16.30054,-6.91538 12.84285,-9.38516 -3.45769,-2.46978 -5.92747,-5.43351 -5.92747,-5.43351 0,0 -3.95165,-1.48187 -6.42142,-2.96373 -2.46978,-1.48187 -5.43351,-2.96373 -5.43351,-2.96373 l -5.43351,0 -4.93956,2.96373 -3.45769,5.92746 1.97583,3.95165 2.46977,0 5.43352,-4.93956 1.48186,2.46978 z"
         style="fill:#4d4d4d;fill-opacity:1;fill-rule:evenodd;stroke:none;stroke-width:1px;stroke-linecap:butt;stroke-linejoin:miter;stroke-opacity:1" />
      <path
         inkscape:connector-curvature="0"
         id="path4270"
         d="m 510.70357,666.16288 -10.1291,8.3827 -8.73198,9.77983 -1.39712,11.17693 3.49279,8.38271 6.98559,2.44495 4.88992,3.84207 3.49279,3.84207 5.23918,4.19135 3.4928,1.04784 14.66973,-0.34927 8.03342,-19.90893 c 0,0 0,-17.11468 -0.69856,-19.21036 -0.69855,-2.09567 -3.14351,-11.52621 -3.14351,-11.52621 0,0 -5.93775,-5.93775 -7.33487,-6.28704 -1.39711,-0.34927 -9.08126,-1.39711 -18.86108,4.19136 z"
         style="fill:#bebbc4;fill-opacity:1;fill-rule:evenodd;stroke:none;stroke-width:1px;stroke-linecap:butt;stroke-linejoin:miter;stroke-opacity:1" />
      <path
         sodipodi:nodetypes="csccccccccccccccccccssscccccssscccccccscsccc"
         inkscape:connector-curvature="0"
         id="path4272"
         d="m 520.75894,685.50984 c 0,0 -2.27032,0.17463 -3.31816,-0.17464 -1.04783,-0.34929 -4.36599,0.34927 -4.36599,0.34927 l -6.81095,1.7464 -1.74639,2.96887 1.22248,2.6196 2.61959,0.8732 3.49279,-1.7464 6.81095,-3.49279 -7.50951,4.54063 -4.54063,2.27031 -1.22248,3.66744 2.27032,1.74639 2.09568,0.17464 5.58847,-3.66743 7.85878,-4.19135 0.69856,0.34928 -15.71757,8.55734 -0.69856,1.7464 0.8732,2.09567 c 0,0 2.09568,0.69856 2.79423,0.69856 0.69856,0 0.8732,1.39712 2.27032,-0.34928 1.39712,-1.7464 7.16023,-4.19136 8.03342,-4.71527 0.8732,-0.52392 5.76311,-2.79424 5.76311,-2.79424 l 1.22248,-1.04783 -1.22248,1.04783 -15.19365,9.43055 0.34928,1.57176 c 0,0 0.8732,1.39711 1.92104,1.39711 1.04784,0 1.92104,0.17464 2.61959,0 0.69856,-0.17464 1.39712,-1.39711 2.09568,-1.74639 0.69856,-0.34929 9.2559,-5.06456 9.2559,-5.06456 l 1.39712,-0.34927 -7.50951,4.71527 -3.49279,2.61959 0,1.7464 1.39712,2.44496 2.61959,-0.52393 c 0,0 2.79424,-1.92103 3.66744,-2.27031 0.87319,-0.34928 3.49279,-1.57176 3.49279,-1.57176 0,0 6.11239,1.57176 9.2559,-6.63631 3.14351,-8.20806 0.17464,-13.79653 0.17464,-13.79653 l -12.05014,-5.23918 z"
         style="fill:#1a1a1a;fill-opacity:1;fill-rule:evenodd;stroke:none;stroke-width:1px;stroke-linecap:butt;stroke-linejoin:miter;stroke-opacity:1" />
      <path
         id="path4274"
         d="m 485.83588,592.63617 -9.38573,0.98733 -11.3604,12.84342 -3.45769,-3.45769 -7.40972,5.9267 -2.469,10.86741 5.43235,1.48167 c 0,0 -4.93936,6.91519 -4.93936,15.31243 l 8.89139,32.60087 40.99792,-3.95068 13.33776,-3.95203 1.48168,-4.93936 5.92669,-4.44638 c 0,0 4.44618,-11.85376 2.47036,-12.34772 -1.97583,-0.49396 -5.4337,-2.47036 -5.4337,-2.47036 l 4.93936,-6.91538 -1.97602,-17.78278 -4.93936,-9.38439 -10.86605,-6.42238 -9.38574,-3.95068 -11.85474,0 z m -12.4882,14.61278 c 34.58747,10e-6 43.11306,27.37247 43.11306,27.37247 l -9.38438,14.81944 c -32.60107,13.3368 -44.94995,-18.27713 -44.94995,-18.27713 0,0 -0.98869,-10.86662 5.92669,-23.70947 1.82918,-0.13893 3.59356,-0.20531 5.29458,-0.20531 z"
         style="fill:#9a96a4;fill-opacity:1;fill-rule:evenodd;stroke:none;stroke-width:1px;stroke-linecap:butt;stroke-linejoin:miter;stroke-opacity:1"
         inkscape:connector-curvature="0" />
      <path
         inkscape:connector-curvature="0"
         id="path4278"
         d="m 382.59899,724.02795 34.08293,17.28844 0.98791,7.40933 -11.36098,18.27635 -36.05875,-5.4335 -2.96374,-11.36098 7.40934,-19.75822 z"
         style="fill:#c2bfc9;fill-opacity:1;fill-rule:evenodd;stroke:none;stroke-width:1px;stroke-linecap:butt;stroke-linejoin:miter;stroke-opacity:1" />
      <path
         inkscape:connector-curvature="0"
         id="path4280"
         d="m 431.00663,754.65319 7.90328,2.96373 4.4456,4.4456 8.39725,0.98791 19.75822,6.91538 3.95165,4.93955 -1.97583,5.92747 -9.38516,17.28844 -13.83075,2.46978 -11.36098,-1.97582 -18.27635,-15.31262 -1.48187,-7.40933 5.43352,-11.36098 0.98791,-6.42142 z"
         style="fill:#c2bfc9;fill-opacity:1;fill-rule:evenodd;stroke:none;stroke-width:1px;stroke-linecap:butt;stroke-linejoin:miter;stroke-opacity:1" />
      <g
         transform="matrix(0.66823181,0.17801877,-0.17801877,0.66823181,218.8938,541.25921)"
         id="g4329">
        <ellipse
           style="opacity:1;fill:#000000;fill-opacity:1;stroke:none;stroke-width:2.0309999;stroke-miterlimit:4;stroke-dasharray:none;stroke-dashoffset:0;stroke-opacity:1"
           id="path4282-5"
           cx="349.51279"
           cy="124.03198"
           rx="13.131983"
           ry="15.657365" />
        <ellipse
           style="opacity:1;fill:#c2bfc9;fill-opacity:1;stroke:none;stroke-width:2.0309999;stroke-miterlimit:4;stroke-dasharray:none;stroke-dashoffset:0;stroke-opacity:1"
           id="path4282"
           cx="349.41501"
           cy="124.032"
           rx="11.013921"
           ry="13.131984" />
        <ellipse
           style="opacity:1;fill:#000000;fill-opacity:1;stroke:none;stroke-width:2.0309999;stroke-miterlimit:4;stroke-dasharray:none;stroke-dashoffset:0;stroke-opacity:1"
           id="path4282-3"
           cx="349.52908"
           cy="123.77943"
           rx="6.989604"
           ry="8.3337593" />
        <ellipse
           style="opacity:1;fill:#8c8179;fill-opacity:1;stroke:none;stroke-width:2.0309999;stroke-miterlimit:4;stroke-dasharray:none;stroke-dashoffset:0;stroke-opacity:1"
           id="path4282-3-4"
           cx="348.1116"
           cy="124.2845"
           rx="5.0833488"
           ry="6.0609159" />
      </g>
      <path
         sodipodi:nodetypes="ccccc"
         inkscape:connector-curvature="0"
         id="path4276-6"
         d="m 460.70037,630.62035 c 0,0 13.31643,34.73034 48.4718,20.07848 l 10.12049,-16.27985 c 0,0 -10.12049,-33.10234 -52.20041,-29.84638 -7.4572,14.10921 -6.39188,26.04775 -6.39188,26.04775 z"
         style="opacity:1;fill:#333333;fill-opacity:1;fill-rule:evenodd;stroke:none;stroke-width:1px;stroke-linecap:butt;stroke-linejoin:miter;stroke-opacity:1" />
    </g>
  </g>
</svg>
