<?xml version="1.0" encoding="UTF-8" standalone="no"?>
<!-- Created with Inkscape (http://www.inkscape.org/) -->

<svg
   xmlns:dc="http://purl.org/dc/elements/1.1/"
   xmlns:cc="http://creativecommons.org/ns#"
   xmlns:rdf="http://www.w3.org/1999/02/22-rdf-syntax-ns#"
   xmlns:svg="http://www.w3.org/2000/svg"
   xmlns="http://www.w3.org/2000/svg"
   xmlns:xlink="http://www.w3.org/1999/xlink"
   xmlns:sodipodi="http://sodipodi.sourceforge.net/DTD/sodipodi-0.dtd"
   xmlns:inkscape="http://www.inkscape.org/namespaces/inkscape"
   id="svg2"
   version="1.1"
   inkscape:version="0.92.1 r15371"
   xml:space="preserve"
   width="400.56976"
   height="220.23294"
   viewBox="0 0 375.53415 206.46838"
   sodipodi:docname="Hielo-en-nave.svg"
   inkscape:export-filename="/home/malefico/Documentos/TierraLuna/imagenes/Hielo-en-nave.png"
   inkscape:export-xdpi="90"
   inkscape:export-ydpi="90"><metadata
     id="metadata8"><rdf:RDF><cc:Work
         rdf:about=""><dc:format>image/svg+xml</dc:format><dc:type
           rdf:resource="http://purl.org/dc/dcmitype/StillImage" /><dc:title></dc:title></cc:Work></rdf:RDF></metadata><defs
     id="defs6"><linearGradient
       inkscape:collect="always"
       id="linearGradient5752"><stop
         style="stop-color:#003847;stop-opacity:1"
         offset="0"
         id="stop5748" /><stop
         style="stop-color:#00a9d4;stop-opacity:0"
         offset="1"
         id="stop5750" /></linearGradient><linearGradient
       id="linearGradient5730"
       inkscape:collect="always"><stop
         id="stop5726"
         offset="0"
         style="stop-color:#0091b6;stop-opacity:1" /><stop
         id="stop5728"
         offset="1"
         style="stop-color:#55ddff;stop-opacity:0;" /></linearGradient><linearGradient
       inkscape:collect="always"
       id="linearGradient5714"><stop
         style="stop-color:#55ddff;stop-opacity:1;"
         offset="0"
         id="stop5710" /><stop
         style="stop-color:#55ddff;stop-opacity:0;"
         offset="1"
         id="stop5712" /></linearGradient><clipPath
       clipPathUnits="userSpaceOnUse"
       id="clipPath58"><path
         d="M 0,980 H 1400 V 0 H 0 Z"
         id="path60"
         inkscape:connector-curvature="0" /></clipPath><clipPath
       clipPathUnits="userSpaceOnUse"
       id="clipPath78"><path
         d="M 71.9106,582.282 H 175.144 V 365.751 H 71.9106 Z"
         id="path80"
         inkscape:connector-curvature="0" /></clipPath><clipPath
       clipPathUnits="userSpaceOnUse"
       id="clipPath174"><path
         d="M 30,968.454 H 145.486 V 608.42 H 30 Z"
         id="path176"
         inkscape:connector-curvature="0" /></clipPath><clipPath
       clipPathUnits="userSpaceOnUse"
       id="clipPath206"><path
         d="m 293.543,226.125 h 96.494 V 9.59375 h -96.494 z"
         id="path208"
         inkscape:connector-curvature="0" /></clipPath><clipPath
       clipPathUnits="userSpaceOnUse"
       id="clipPath294"><path
         d="M 242.995,624.888 H 363.899 V 276.063 H 242.995 Z"
         id="path296"
         inkscape:connector-curvature="0" /></clipPath><clipPath
       clipPathUnits="userSpaceOnUse"
       id="clipPath326"><path
         d="M 532.688,562.649 H 635.921 V 346.119 H 532.688 Z"
         id="path328"
         inkscape:connector-curvature="0" /></clipPath><clipPath
       clipPathUnits="userSpaceOnUse"
       id="clipPath434"><path
         d="M 457,968.454 H 659.938 V 580.549 H 457 Z"
         id="path436"
         inkscape:connector-curvature="0" /></clipPath><clipPath
       clipPathUnits="userSpaceOnUse"
       id="clipPath470"><path
         d="m 1009.83,574.779 h 87.84 V 358.248 h -87.84 z"
         id="path472"
         inkscape:connector-curvature="0" /></clipPath><clipPath
       clipPathUnits="userSpaceOnUse"
       id="clipPath562"><path
         d="m 959.72,968.454 h 116.73 V 613.811 H 959.72 Z"
         id="path564"
         inkscape:connector-curvature="0" /></clipPath><clipPath
       clipPathUnits="userSpaceOnUse"
       id="clipPath598"><path
         d="M 777.513,277.034 H 880.745 V 60.5029 H 777.513 Z"
         id="path600"
         inkscape:connector-curvature="0" /></clipPath><clipPath
       clipPathUnits="userSpaceOnUse"
       id="clipPath710"><path
         d="M 723,601.888 H 852.312 V 292.624 H 723 Z"
         id="path712"
         inkscape:connector-curvature="0" /></clipPath><clipPath
       clipPathUnits="userSpaceOnUse"
       id="clipPath786"><path
         d="m 1216.96,250.711 h 116.41 V 28.8359 h -116.41 z"
         id="path788"
         inkscape:connector-curvature="0" /></clipPath><clipPath
       clipPathUnits="userSpaceOnUse"
       id="clipPath830"><path
         d="m 1180,624.888 h 107.99 V 260.838 H 1180 Z"
         id="path832"
         inkscape:connector-curvature="0" /></clipPath><clipPath
       clipPathUnits="userSpaceOnUse"
       id="clipPath830-3"><path
         d="m 1180,624.888 h 107.99 V 260.838 H 1180 Z"
         id="path832-6"
         inkscape:connector-curvature="0" /></clipPath><linearGradient
       inkscape:collect="always"
       xlink:href="#linearGradient5714"
       id="linearGradient5716"
       x1="179.09087"
       y1="124.51257"
       x2="172.1143"
       y2="31.606499"
       gradientUnits="userSpaceOnUse" /><linearGradient
       inkscape:collect="always"
       xlink:href="#linearGradient5730"
       id="linearGradient5724"
       x1="191.24944"
       y1="122.80992"
       x2="193.68539"
       y2="167.54247"
       gradientUnits="userSpaceOnUse"
       gradientTransform="translate(-1.205168,8.823803)" /><linearGradient
       inkscape:collect="always"
       xlink:href="#linearGradient5730"
       id="linearGradient5738"
       x1="92.347214"
       y1="105.75994"
       x2="34.747166"
       y2="159.09489"
       gradientUnits="userSpaceOnUse" /><linearGradient
       inkscape:collect="always"
       xlink:href="#linearGradient5730"
       id="linearGradient5746"
       x1="141.63283"
       y1="149.1857"
       x2="143.20401"
       y2="103.44285"
       gradientUnits="userSpaceOnUse" /><linearGradient
       inkscape:collect="always"
       xlink:href="#linearGradient5752"
       id="linearGradient5754"
       x1="71.348457"
       y1="120.58307"
       x2="27.994606"
       y2="109.63398"
       gradientUnits="userSpaceOnUse" /></defs><sodipodi:namedview
     pagecolor="#000000"
     bordercolor="#666666"
     borderopacity="1"
     objecttolerance="10"
     gridtolerance="10"
     guidetolerance="10"
     inkscape:pageopacity="0"
     inkscape:pageshadow="2"
     inkscape:window-width="1920"
     inkscape:window-height="1028"
     id="namedview4"
     showgrid="false"
     fit-margin-top="4"
     fit-margin-left="4"
     fit-margin-bottom="4"
     fit-margin-right="4"
     inkscape:zoom="1.5412245"
     inkscape:cx="235.72478"
     inkscape:cy="-11.529606"
     inkscape:window-x="0"
     inkscape:window-y="24"
     inkscape:window-maximized="1"
     inkscape:current-layer="layer2" /><g
     inkscape:groupmode="layer"
     id="layer1"
     inkscape:label="spaceships 1"
     style="display:none"><g
       transform="matrix(1.2500001,0,0,-1.2500001,-1130.2351,654.45341)"
       id="g5545"><g
         inkscape:transform-center-y="64.687198"
         inkscape:transform-center-x="-24.929838"
         transform="matrix(0,0.71027761,-0.71027761,0,1115.4898,391.91447)"
         id="g726"><path
           inkscape:connector-curvature="0"
           id="path728"
           style="fill:#8c1f1f;fill-opacity:1;fill-rule:nonzero;stroke:none"
           d="m 0,0 c -6.679,57.742 0,108.581 0,108.581 -4.994,2.871 -8.911,8.791 -11.181,12.901 -1.256,-12.355 -1.958,-25.105 -1.958,-38.158 0,-38.369 1.07,-69.372 3.154,-94.434 C -5.968,-5.106 0,0 0,0" /></g><g
         inkscape:transform-center-y="-57.227956"
         inkscape:transform-center-x="-24.957548"
         transform="matrix(0,0.71027761,-0.71027761,0,1029.0378,488.06972)"
         id="g730"><path
           inkscape:connector-curvature="0"
           id="path732"
           style="fill:#8c1f1f;fill-opacity:1;fill-rule:nonzero;stroke:none"
           d="m 0,0 c -2.249,-4.117 -6.221,-10.21 -11.31,-13.135 0,0 6.679,-50.839 0,-108.581 0,0 6.164,-5.275 10.18,-11.406 2.102,25.113 3.178,56.212 3.178,94.73 C 2.048,-25.258 1.313,-12.429 0,0" /></g><g
         style="fill:#ff4646;fill-opacity:1"
         inkscape:transform-center-y="3.7206165"
         inkscape:transform-center-x="1.5000364"
         transform="matrix(0,0.71027761,-0.71027761,0,1115.4898,480.03676)"
         id="g734"><path
           sodipodi:nodetypes="cccssssssscscsssssssccccccssscccc"
           inkscape:connector-curvature="0"
           id="path736"
           style="fill:#ff4646;fill-opacity:1;fill-rule:nonzero;stroke:none"
           d="m 0,0 c 6.679,57.742 0,108.581 0,108.581 5.089,2.925 9.061,9.018 11.31,13.135 -0.805625,7.62588 -1.8334375,15.09719 -3.05325,22.38725 -1.2198125,7.29007 -5.2153778,8.19788 -6.7890028,15.09877 -1.57362501,6.90089 -0.7253097,19.79486 -2.5923722,26.25321 -1.8670625,6.45835 -3.86575,12.68208 -5.965875,18.64452 -2.100125,5.96244 -4.301687,11.66358 -6.5745,17.07674 -2.272812,5.41316 -4.616875,10.53834 -7.002,15.34885 -2.385125,4.81052 -4.811312,9.30637 -7.248375,13.46087 -2.437063,4.15451 -4.885,7.96767 -7.313625,11.41279 -7.639,-1.232 -16.97,-1.562 -27.055,-1.562 -10.11,0 -19.463,0.332 -27.112,1.571 -2.441875,-3.44925 -4.892625,-7.26756 -7.324014,-11.42815 -2.431388,-4.16058 -2.259663,-14.3477 -4.624096,-19.16605 -2.36443,-4.81834 -1.58075,-16.15317 -3.82175,-21.57569 -2.241,-5.42253 -7.50667,-4.93274 -9.56776,-10.90587 -2.0611,-5.97312 -6.60187,-6.5239 -8.42659,-12.99404 -1.82472,-6.47015 -3.51713,-13.17542 -5.04899,-20.08901 -1.53187,-6.9136 -2.90319,-14.03552 -4.08574,-21.33898 -1.18254,-7.30346 -2.17631,-14.78846 -2.95306,-22.42821 2.269,-4.11 6.186,-10.03 11.181,-12.901 0,0 -6.679,-50.839 0,-108.581 0,0 -5.968,-5.24 -9.986,-11.244 3.319,-39.849 9.207,-64.255 17.474,-80.255 h 0.045 c -0.018,0 -0.045,0.261 -0.045,0.324 0,3.217 24.47,5.893 54.653,5.893 30.187,0 54.656,-2.709 54.656,-5.926 0,-0.063 -0.027,-0.291 -0.044,-0.291 h 0.044 c 8.247,16 14.127,40.282 17.45,79.959 C 6.164,-5.409 0,0 0,0" /></g><g
         inkscape:transform-center-y="4.0251421"
         inkscape:transform-center-x="167.22411"
         transform="matrix(0,0.71027761,-0.71027761,0,929.82369,455.01475)"
         id="g738"><path
           sodipodi:nodetypes="cssssssscsssssssc"
           inkscape:connector-curvature="0"
           id="path740"
           style="fill:#8c1f1f;fill-opacity:1;fill-rule:nonzero;stroke:none"
           d="m 0,0 c -2.47725,3.51375 -4.934125,6.6449375 -7.3385156,9.3652344 -2.4043907,2.7202966 -6.3065494,0.8956986 -8.5738614,2.7658856 -2.267313,1.870187 -2.899779,4.334658 -4.965795,5.29808 -2.066015,0.963422 -4.015328,4.5598 -5.815828,4.5598 -1.93325,0 -3.99525,-0.495625 -6.156219,-1.458594 -2.160969,-0.962969 -4.420906,-2.393281 -6.750031,-4.262656 -2.329125,-1.869375 -2.143685,-5.728065 -4.581403,-8.447283 C -46.619372,5.1012483 -51.68025,3.5215 -54.167,0.009 c 1.912,-0.30975 3.930625,-0.5628125 6.041016,-0.76817187 2.11039,-0.20535938 4.312546,-0.36301563 6.591609,-0.48195313 2.279062,-0.1189375 4.635031,-0.1991563 7.053047,-0.2496406 C -32.063313,-1.54125 -29.58325,-1.562 -27.056,-1.562 c 2.52125,0 4.995375,0.020625 7.407734,0.070812 2.41236,0.050188 4.762954,0.1299375 7.037141,0.2481875 2.274188,0.11825 4.4719688,0.275 6.5787031,0.4791875 C -3.9256875,-0.559625 -1.91,-0.308 0,0" /></g><g
         inkscape:transform-center-y="10.911779"
         inkscape:transform-center-x="57.878738"
         transform="matrix(0,0.71027761,-0.71027761,0,990.80779,453.50916)"
         id="g750"><path
           sodipodi:nodetypes="csscc"
           inkscape:connector-curvature="0"
           id="path752"
           style="fill:#171d2d;fill-opacity:1;fill-rule:nonzero;stroke:none"
           d="m 0,0 c -5.806,3.683 -12.688,5.826 -20.072,5.826 -20.719,0 -37.518,-16.798 -37.518,-37.519 0,-14.114 7.802,-26.405 19.322,-32.808 40.207,8.261 52.968512,-0.516047 49.636512,21.093953" /></g><g
         inkscape:transform-center-y="-4.8954997"
         inkscape:transform-center-x="53.20156"
         transform="matrix(0,0.71027761,-0.71027761,0,989.20779,450.30916)"
         id="g754"><path
           inkscape:connector-curvature="0"
           id="path756"
           style="fill:#000000;fill-opacity:1;fill-rule:nonzero;stroke:none"
           d="m 0,0 c 3.332,-21.61 1.939,-56.24 -38.268,-64.501 5.389,-2.998 11.592,-4.71 18.196,-4.71 20.721,0 37.518,16.798 37.518,37.518 C 17.446,-18.356 10.483,-6.654 0,0" /></g><g
         inkscape:transform-center-y="3.6818186"
         inkscape:transform-center-x="55.787503"
         transform="matrix(0,0.71027761,-0.71027761,0,989.58097,436.05225)"
         id="g758"><path
           inkscape:connector-curvature="0"
           id="path760"
           style="fill:#8c1f1f;fill-opacity:1;fill-rule:nonzero;stroke:none"
           d="m 0,0 c -17.185,0 -31.166,-13.982 -31.166,-31.167 0,-17.185 13.981,-31.167 31.166,-31.167 17.188,0 31.167,13.982 31.167,31.167 C 31.167,-13.982 17.188,0 0,0 m 0,-75.038 c -24.188,0 -43.869,19.68 -43.869,43.871 0,24.19 19.681,43.87 43.869,43.87 24.191,0 43.87,-19.68 43.87,-43.87 0,-24.191 -19.679,-43.871 -43.87,-43.871" /></g><g
         inkscape:transform-center-y="-63.984407"
         inkscape:transform-center-x="-132.36931"
         transform="matrix(0,0.71027761,-0.71027761,0,1131.8949,480.03676)"
         id="g762"><path
           sodipodi:nodetypes="cccc"
           inkscape:connector-curvature="0"
           id="path764"
           style="fill:#8c1f1f;fill-opacity:1;fill-rule:nonzero;stroke:none"
           d="m 0,0 27.168494,-23.977247 c 0,0 -4.099015,-33.827263 -10.783494,-61.479753 l -22.158,39.265" /></g><g
         inkscape:transform-center-y="71.357804"
         inkscape:transform-center-x="-132.36931"
         transform="matrix(0,0.71027761,-0.71027761,0,1131.8949,392.06014)"
         id="g766"><path
           sodipodi:nodetypes="ccccccc"
           inkscape:connector-curvature="0"
           id="path768"
           style="fill:#8c1f1f;fill-opacity:1;fill-rule:nonzero;stroke:none"
           d="m 0,0 -7.5669994,-7.5445635 -7.5669996,-7.5445635 -6.533498,-13.74557 -8.08375,-13.22882 c 0,0 0.480762,-17.807995 13.364247,-43.393483 l 22.161,39.265" /></g><g
         inkscape:transform-center-y="4.0241718"
         inkscape:transform-center-x="148.56672"
         transform="matrix(0,0.71027761,-0.71027761,0,937.49518,439.05985)"
         id="g770"><path
           inkscape:connector-curvature="0"
           id="path772"
           style="fill:#8c1f1f;fill-opacity:1;fill-rule:nonzero;stroke:none"
           d="m 0,0 c 0,-2.551 -2.068,-4.619 -4.619,-4.619 -2.552,0 -4.62,2.068 -4.62,4.619 0,2.551 2.068,4.619 4.62,4.619 C -2.068,4.619 0,2.551 0,0" /></g><g
         inkscape:transform-center-y="-14.431603"
         inkscape:transform-center-x="149.59237"
         transform="matrix(0,0.71027761,-0.71027761,0,936.67502,453.82447)"
         id="g774"><path
           inkscape:connector-curvature="0"
           id="path776"
           style="fill:#8c1f1f;fill-opacity:1;fill-rule:nonzero;stroke:none"
           d="m 0,0 c 0,-2.551 -2.068,-4.619 -4.62,-4.619 -2.551,0 -4.619,2.068 -4.619,4.619 0,2.551 2.068,4.62 4.619,4.62 C -2.068,4.62 0,2.551 0,0" /></g><g
         inkscape:transform-center-y="22.47949"
         inkscape:transform-center-x="149.59237"
         transform="matrix(0,0.71027761,-0.71027761,0,936.67502,424.29524)"
         id="g778"><path
           inkscape:connector-curvature="0"
           id="path780"
           style="fill:#8c1f1f;fill-opacity:1;fill-rule:nonzero;stroke:none"
           d="m 0,0 c 0,-2.551 -2.068,-4.619 -4.619,-4.619 -2.552,0 -4.619,2.068 -4.619,4.619 0,2.551 2.067,4.62 4.619,4.62 C -2.068,4.62 0,2.551 0,0" /></g><g
         inkscape:transform-center-y="3.4897751"
         inkscape:transform-center-x="-50.030859"
         transform="matrix(0,0.71027761,-0.71027761,0,1081.4492,412.41194)"
         id="g822"><path
           inkscape:connector-curvature="0"
           id="path824"
           style="fill:#8c1f1f;fill-opacity:1;fill-rule:nonzero;stroke:none"
           d="m 0,0 c 0,0 35,8.084 67,0 v -45.616 c 0,0 -33,5.697 -67,0 z" /></g><g
         inkscape:transform-center-y="41.225275"
         inkscape:transform-center-x="16.068976"
         transform="matrix(0,0.71027761,-0.71027761,0,1358.0489,-470.46313)"
         id="g826"><g
           id="g828" /><g
           id="g834"><g
             style="opacity:0.10000598"
             id="g836"
             clip-path="url(#clipPath830-3)"><g
               id="g838"
               transform="translate(1287.9922,619.6538)"><path
                 sodipodi:nodetypes="cscssscsccccccc"
                 inkscape:connector-curvature="0"
                 id="path840"
                 style="fill:#000000;fill-opacity:1;fill-rule:nonzero;stroke:none"
                 d="m 0,0 c -4.293,3.411 -8.272,5.234 -11.706,5.234 -7.732,0 -17.525,-7.931 -27.473,-21.981 -4.88375,-6.8985 -6.702497,-21.991007 -11.431356,-31.627679 -4.728859,-9.636672 -1.51607,-12.784007 -5.638257,-24.730195 -4.122188,-11.946187 -11.962098,2.447811 -21.74359,-39.800516 -3.194435,-13.79744 -5.485297,-28.48736 -7.038797,-43.76661 -1.256,-12.356 -1.958,-25.106 -1.958,-38.159 0,-38.369 1.069,-69.372 3.153,-94.434 4.018,6.004 9.985,11.11 9.985,11.11 0,0 -5.967,-5.24 -9.985,-11.244 0.554,-6.649 1.181,-12.859 1.877,-18.682 l -24.021,-19.731 c 0,0 -5.272,-11.179 1.265,-31.004 C -48.674,-308.046 -11.781,-82.228 0,0" /></g></g></g></g><path
         sodipodi:nodetypes="csccssc"
         inkscape:connector-curvature="0"
         id="path3397"
         d="m 1176.051,443.52778 c 0,0 -0.1818,27.55446 3.1363,30.96537 3.3181,3.41092 4.4242,-10.53366 4.4242,-10.53366 l -1.4986,0.27192 c 0,0 -1.1805,0.30932 -1.8459,0.12969 -0.6653,-0.17962 -1.4025,-1.22712 -2.1857,-3.70109 -1.3149,-4.15357 -2.0303,-17.13223 -2.0303,-17.13223 z"
         style="fill:#8c1f1f;fill-opacity:1;fill-rule:evenodd;stroke:none;stroke-width:0.80000001px;stroke-linecap:butt;stroke-linejoin:miter;stroke-opacity:1" /><path
         sodipodi:nodetypes="csccssc"
         inkscape:connector-curvature="0"
         id="path3397-1"
         d="m 1176.1029,437.37189 c 0,0 -0.1818,-35.0988 3.1363,-39.44361 3.3181,-4.34482 4.4242,13.41775 4.4242,13.41775 l -1.4986,-0.34637 c 0,0 -1.1805,-0.39401 -1.8459,-0.1652 -0.6653,0.2288 -1.4025,1.56311 -2.1857,4.71444 -1.3149,5.29081 -2.0303,21.82299 -2.0303,21.82299 z"
         style="fill:#8c1f1f;fill-opacity:1;fill-rule:evenodd;stroke:none;stroke-width:0.80000001px;stroke-linecap:butt;stroke-linejoin:miter;stroke-opacity:1" /><path
         inkscape:connector-curvature="0"
         id="path4207"
         d="m 993.22124,447.77961 3.30333,-3.30332 -2.20222,-3.67037 2.93629,-1.46814 -0.36704,-2.20222 2.20222,-0.73407 2.56928,-2.56926"
         style="fill:none;fill-rule:evenodd;stroke:#5b5b5b;stroke-width:0.80000001px;stroke-linecap:butt;stroke-linejoin:miter;stroke-opacity:1" /></g></g><g
     id="g10"
     inkscape:groupmode="layer"
     inkscape:label="hielo"
     transform="matrix(1.25,0,0,-1.25,6.3411765,1240.0511)"
     style="display:none"><g
       id="g54"
       transform="translate(-901.10171,465.08475)"><g
         id="g56"
         clip-path="url(#clipPath58)"><g
           id="g742"
           transform="rotate(90,443.28191,851.44089)"
           inkscape:transform-center-x="-221.97363"
           inkscape:transform-center-y="5.1823763" /><g
           id="g4475"><path
             inkscape:connector-curvature="0"
             id="path4438"
             d="m 929.72394,469.06773 c -1.83518,-1.46815 -19.81996,-12.84628 -19.81996,-12.84628 l 1.10111,-11.74516 c 0,0 -12.47924,-1.10111 -11.74516,-3.30333 0.73407,-2.20222 11.01109,-17.98478 11.01109,-17.98478 0,0 -1.46815,-14.31442 2.56925,-15.04849 4.0374,-0.73407 17.61775,-4.40443 17.61775,-4.40443 l 12.1122,-6.9737 9.54294,-14.68145 25.69255,68.26876 c 0,0 -35.96957,-6.60665 -35.60253,-4.0374 0.36704,2.56926 -12.47924,22.75626 -12.47924,22.75626 z"
             style="opacity:0.7;fill:#64cffb;fill-opacity:1;fill-rule:evenodd;stroke:none;stroke-width:0.80000001px;stroke-linecap:butt;stroke-linejoin:miter;stroke-opacity:1" /><path
             inkscape:connector-curvature="0"
             id="path4438-2"
             d="m 1011.8206,444.77755 c 2.1709,-1.64686 20.1687,-18.79036 20.1687,-18.79036 l 12.446,5.19726 c 0,0 5.0903,-14.16042 7.2594,-12.57168 2.1692,1.58873 16.1502,18.81385 16.1502,18.81385 0,0 16.0447,3.06292 15.5851,8.00767 -0.4597,4.94477 -0.6976,21.97755 -0.6976,21.97755 l 3.8167,16.42494 13.011,16.00359 -82.3496,7.15078 c 0,0 18.4102,-39.67076 15.4981,-40.09992 -2.9122,-0.42927 -20.888,-22.11368 -20.888,-22.11368 z"
             style="opacity:0.7;fill:#64cffb;fill-opacity:1;fill-rule:evenodd;stroke:none;stroke-width:0.80000001px;stroke-linecap:butt;stroke-linejoin:miter;stroke-opacity:1" /><path
             sodipodi:nodetypes="csccsccccccccccccc"
             inkscape:connector-curvature="0"
             id="path4455"
             d="m 932.2932,463.56218 c 0,0 7.34073,8.80887 10.27702,9.17591 2.93629,0.36704 11.37812,2.56925 11.37812,2.56925 l 12.47924,9.54295 c 0,0 11.74516,3.30333 13.58034,3.30333 1.83519,0 17.25071,5.87258 17.25071,5.87258 l 7.34077,-3.67037 5.5055,12.1122 17.2507,-7.70776 9.91,-23.85736 -15.7826,-19.81997 -14.6814,-33.76734 -36.33662,15.41553 5.87258,15.78256 -30.09698,-4.0374 -5.13851,1.46815 -10.27702,17.98478 z"
             style="opacity:0.8;fill:#aff1fc;fill-opacity:1;fill-rule:evenodd;stroke:none;stroke-width:0.80000001px;stroke-linecap:butt;stroke-linejoin:miter;stroke-opacity:1" /><path
             inkscape:connector-curvature="0"
             id="path4457"
             d="m 1095.6244,495.12731 14.6814,-27.16069 c 0,0 11.7452,28.99587 13.5804,28.2618 1.8352,-0.73408 17.2507,0.73407 17.2507,0.73407 0,0 6.2396,12.84627 7.3407,14.31442 1.1011,1.46814 11.0111,12.47923 11.0111,12.47923 0,0 5.5056,-13.58034 6.9737,-13.94738 1.4681,-0.36704 19.0859,6.97369 19.0859,6.97369 0,0 -1.8352,-9.90998 -2.9363,-12.47923 -1.1011,-2.56926 -5.1385,-22.38922 -5.1385,-22.38922 l 13.5803,2.93629 2.2023,-15.04849 -8.0748,-15.78257 v -17.61774 -9.90998 c 0,0 -15.0485,12.84627 -16.8837,12.47923 -1.8352,-0.36703 -30.097,-20.92107 -30.097,-20.92107 0,0 -0.367,37.07067 -3.6704,36.70364 -3.3033,-0.36704 -35.6025,-38.90585 -34.8684,-37.43771 0.734,1.46815 -17.2507,37.80474 -17.2507,37.80474 l 1.1011,24.59144 6.9737,12.84627 z"
             style="opacity:0.8;fill:#6acff7;fill-opacity:1;fill-rule:evenodd;stroke:none;stroke-width:0.80000001px;stroke-linecap:butt;stroke-linejoin:miter;stroke-opacity:1" /><path
             inkscape:connector-curvature="0"
             id="path4459"
             d="m 970.46498,433.4652 -13.58035,-34.50142 9.17591,-8.07479 h 15.78257 l 11.37812,-8.44184 16.14957,-0.73408 13.2133,-1.10111 8.0748,-5.50554 13.5804,4.77147 -2.2022,21.28811 -3.6704,18.71886 5.5055,11.37812 -12.1121,-4.77147 -15.4156,15.04849 -9.91,-23.12329 z"
             style="opacity:0.8;fill:#6acff7;fill-opacity:1;fill-rule:evenodd;stroke:none;stroke-width:0.80000001px;stroke-linecap:butt;stroke-linejoin:miter;stroke-opacity:1" /><path
             sodipodi:nodetypes="ccccccccssccccccccccccccccc"
             inkscape:connector-curvature="0"
             id="path4461"
             d="m 1043.5052,432.36409 -6.2396,-12.84627 4.588,-18.71886 0.734,-18.16829 3.8539,-4.58796 8.9924,2.38574 15.0485,8.80887 4.5879,9.90998 c 0,0 15.4156,0.36704 15.5991,-0.73407 0.1835,-1.10111 6.4231,-18.53534 7.1572,-19.08589 0.7341,-0.55055 13.0298,-1.28463 13.0298,-1.28463 l 6.7902,4.0374 7.1572,-6.97369 0.9176,7.70777 -1.1011,14.49793 -1.1012,28.62883 -4.4044,14.68146 -18.9023,-20.92108 -12.1123,25.32551 -5.322,10.27702 v -10.46053 l -10.8276,-6.0561 h -5.322 l -4.955,-7.52425 -10.0935,-11.56164 -6.6066,12.84627 z"
             style="opacity:0.8;fill:#aff1fc;fill-opacity:1;fill-rule:evenodd;stroke:none;stroke-width:0.80000001px;stroke-linecap:butt;stroke-linejoin:miter;stroke-opacity:1" /><path
             sodipodi:nodetypes="ccccccccccscccccsccccccc"
             inkscape:connector-curvature="0"
             id="path4463"
             d="m 1118.5024,439.98673 c 1.5572,1.1679 15.3125,15.83157 15.3125,15.83157 l 5.8396,-7.52649 -0.9084,-12.32786 -0.1298,-16.73993 10.1218,7.39671 19.2056,14.1446 16.0911,-12.19809 -2.7252,-2.59534 4.2824,-12.58739 c 0,0 1.8167,-12.06833 1.8167,-12.5874 0,-0.51907 -4.6716,-8.43485 -4.6716,-8.43485 l -14.5339,-13.7553 5.3204,-11.28973 -15.0529,-2.3358 -12.0684,2.59534 c 0,0 -5.7097,4.02278 -6.3585,3.63347 -0.6488,-0.3893 -12.0684,-0.51906 -12.0684,-0.51906 l 9.473,10.12182 c 0,0 -6.2288,-0.90837 -5.9693,-0.25953 0.2596,0.64883 1.4275,6.48834 1.4275,6.48834 l -8.3051,4.80138 -1.5572,34.25848 z"
             style="opacity:0.7;fill:#64cffb;fill-opacity:1;fill-rule:evenodd;stroke:none;stroke-width:0.80000001px;stroke-linecap:butt;stroke-linejoin:miter;stroke-opacity:1" /><path
             inkscape:connector-curvature="0"
             id="path4467"
             d="m 912.43253,417.40728 c 0,0 -1.81674,-4.80137 -1.42744,-5.32045 0.3893,-0.51906 1.68697,-2.3358 1.68697,-2.3358 l 4.41208,-1.42744 c 0,0 3.63347,-0.3893 5.45021,-0.64883 1.81674,-0.25953 9.86229,-3.50371 9.86229,-3.50371 l 8.69438,-4.80138 -9.34322,7.39672 -5.57998,2.59534 -9.86229,2.20604 z"
             style="fill:#d5f9fd;fill-opacity:1;fill-rule:evenodd;stroke:none;stroke-width:0.80000001px;stroke-linecap:butt;stroke-linejoin:miter;stroke-opacity:1" /><path
             inkscape:connector-curvature="0"
             id="path4469"
             d="m 986.14015,389.37762 7.39672,-5.70975 19.98413,-1.29767 10.2516,-0.90837 7.2669,-5.19068 c 0,0 5.4502,1.94651 4.4121,1.68698 -1.0381,-0.25954 -10.2516,3.89301 -10.2516,3.89301 l -2.206,1.03813 -4.1526,-0.51907 -22.31989,1.94651 -4.15254,1.81673 z"
             style="fill:#d5f9fd;fill-opacity:1;fill-rule:evenodd;stroke:none;stroke-width:0.80000001px;stroke-linecap:butt;stroke-linejoin:miter;stroke-opacity:1" /><path
             inkscape:connector-curvature="0"
             id="path4473"
             d="m 1022.3451,504.8702 1.8168,-4.93114 4.9311,2.59534 55.5403,-3.37394 z"
             style="fill:#d5f9fd;fill-opacity:1;fill-rule:evenodd;stroke:none;stroke-width:0.80000001px;stroke-linecap:butt;stroke-linejoin:miter;stroke-opacity:1" /></g></g></g></g><g
     inkscape:groupmode="layer"
     id="layer2"
     inkscape:label="hielo 1"
     style="display:inline"><path
       style="color:#000000;clip-rule:nonzero;display:inline;overflow:visible;visibility:visible;opacity:1;isolation:auto;mix-blend-mode:normal;color-interpolation:sRGB;color-interpolation-filters:linearRGB;solid-color:#000000;solid-opacity:1;fill:#55ddff;fill-opacity:0.90099015;fill-rule:evenodd;stroke:url(#linearGradient5746);stroke-width:7.08283467;stroke-linecap:square;stroke-linejoin:miter;stroke-miterlimit:4;stroke-dasharray:none;stroke-dashoffset:0;stroke-opacity:0.65346533;paint-order:stroke fill markers;color-rendering:auto;image-rendering:auto;shape-rendering:auto;text-rendering:auto;enable-background:accumulate"
       d="m 146.47461,78.787109 a 36.496953,36.659164 0 0 0 -36.49805,36.658201 36.496953,36.659164 0 0 0 36.49805,36.66016 36.496953,36.659164 0 0 0 36.49609,-36.66016 36.496953,36.659164 0 0 0 -36.49609,-36.658201 z m 5.67773,7.460938 c 2.27093,0 7.46094,9.6e-4 7.46094,1.623047 v 12.976566 l 5.51563,-6.812504 2.26953,9.083984 -1.29688,6.48828 6.8125,-7.46289 c 1.14946,8.00874 3.05959,16.41131 -0.22851,23.60742 -2.13333,4.26666 -5.93555,11.10547 -5.93555,11.10547 -9.49361,4.58705 -6.52933,3.1559 -9.4082,-3.56836 l -2.91992,5.83985 -4.54102,2.27148 -0.97266,-15.57227 -5.1914,7.46094 -3.89258,8.43555 -7.13672,-1.29883 -0.32617,-10.70508 c -4.47075,-0.68372 -2.29305,10.95166 -8.75781,0.97266 -4.85194,-6.75262 -7.98475,-22.03392 2.5957,-34.712891 0,0 5.18945,-11.354178 5.18945,-3.892578 0,7.461599 1.62305,15.896489 1.62305,15.896489 l 6.8125,-20.437505 c 0,0 5.1908,6.486891 6.16406,8.757813 0.97325,2.27092 3.89314,-10.056641 6.16406,-10.056641 z"
       transform="scale(0.93749999)"
       id="path5675"
       inkscape:connector-curvature="0" /><path
       style="color:#000000;clip-rule:nonzero;display:inline;overflow:visible;visibility:visible;opacity:0.9;isolation:auto;mix-blend-mode:normal;color-interpolation:sRGB;color-interpolation-filters:linearRGB;solid-color:#000000;solid-opacity:1;fill:#00a0c8;fill-opacity:1;fill-rule:evenodd;stroke:url(#linearGradient5754);stroke-width:22.9393692;stroke-linecap:square;stroke-linejoin:miter;stroke-miterlimit:4;stroke-dasharray:none;stroke-dashoffset:0;stroke-opacity:0.6534653;paint-order:stroke fill markers;color-rendering:auto;image-rendering:auto;shape-rendering:auto;text-rendering:auto;enable-background:accumulate"
       d="M 28.958151,61.862434 7.950867,77.648952 1.308233,99.333147 l 4.626963,16.596543 10.187966,23.22653 12.44604,-16.40636 29.927216,3.28594 9.892778,12.04339 L 57.895131,102.52183 33.385443,98.387597 22.686153,81.416309 Z"
       id="path5696"
       inkscape:connector-curvature="0"
       sodipodi:nodetypes="cccccccccccc" /><path
       style="color:#000000;clip-rule:nonzero;display:inline;overflow:visible;visibility:visible;opacity:1;isolation:auto;mix-blend-mode:normal;color-interpolation:sRGB;color-interpolation-filters:linearRGB;solid-color:#000000;solid-opacity:1;fill:#55ddff;fill-opacity:0.85643568;fill-rule:evenodd;stroke:url(#linearGradient5716);stroke-width:16.92111397;stroke-linecap:butt;stroke-linejoin:miter;stroke-miterlimit:4;stroke-dasharray:none;stroke-dashoffset:0;stroke-opacity:0.6534653;paint-order:stroke fill markers;color-rendering:auto;image-rendering:auto;shape-rendering:auto;text-rendering:auto;enable-background:accumulate"
       d="m 166.36422,30.858702 -45.17421,0.735063 -41.471407,14.333743 -41.471399,8.820764 -9.997572,6.983104 -6.294766,19.479186 10.738131,16.906464 25.202134,4.404804 38.635556,1.28543 4.262893,-24.345728 18.2145,-14.276507 22.84019,-10.252068 18.50466,11.607726 4.81552,11.016675 15.51453,8.911255 -4.72277,29.336027 29.70829,0.43776 -10.11354,-0.20679 24.12963,-3.95237 2.2217,-22.419445 6.4239,4.026349 5.99377,-14.038722 7.96281,0.84616 5.3821,10.738937 8.92771,-13.591882 2.69096,7.053912 0.75325,27.790171 22.22119,-1.8756 19.29954,-13.075395 10.12484,7.952525 13.69673,-19.527207 16.76215,-0.540244 0.0137,-11.864159 -6.38696,-11.86151 -10.12691,-2.164177 -9.87945,-3.974965 -12.07923,-4.473347 6.34662,-11.037643 5.55421,-4.410383 -16.66262,-2.572721 -27.03048,-6.615574 -11.47868,2.940255 -36.28748,-1.83766 -24.4385,-6.983104 z"
       id="path5683"
       inkscape:connector-curvature="0"
       sodipodi:nodetypes="ccccccccccccccccccccccccccccccccccccccccccccc" /><path
       style="color:#000000;clip-rule:nonzero;display:inline;overflow:visible;visibility:visible;opacity:1;isolation:auto;mix-blend-mode:normal;color-interpolation:sRGB;color-interpolation-filters:linearRGB;solid-color:#000000;solid-opacity:1;fill:#aaeeff;fill-opacity:0.77227723;fill-rule:evenodd;stroke:none;stroke-width:18.33307076;stroke-linecap:butt;stroke-linejoin:round;stroke-miterlimit:4;stroke-dasharray:none;stroke-dashoffset:0;stroke-opacity:1;paint-order:stroke fill markers;color-rendering:auto;image-rendering:auto;shape-rendering:auto;text-rendering:auto;enable-background:accumulate"
       d="m 284.63364,54.407412 c 0,0 6.73371,8.810425 6.73371,11.851837 0,3.041413 4.86626,14.598782 4.86626,14.598782 0,0 -0.30414,-3.953837 6.08283,-6.082826 6.38696,-2.128989 13.68635,-0.608282 14.29463,0.608282 0.60829,1.216566 -3.04141,7.603533 1.52071,9.732521 4.56212,2.12899 11.55737,1.824848 11.55737,1.824848 0,0 -5.77868,-11.86151 -0.91242,-14.598781 4.86625,-2.737272 6.99525,-10.644945 6.99525,-10.644945 l 6.38696,11.86151 1.82484,-15.815347 3.6497,24.635444 0.60829,7.907674 2.43313,-20.985749 3.04141,-11.861509 0.30414,-3.953837 c 0,0 3.95383,4.86626 3.95383,7.907672 0,3.041414 0.91243,8.211815 0.91243,8.211815 0,0 2.43313,-16.119487 2.43313,-17.944335 0,-1.824848 -0.81345,-11.80043 -0.81345,-11.80043 l -9.83149,-5.231482 -15.81535,-0.608283 -12.46979,-4.86626 h -7.90768 l -8.56032,1.131931 -3.30119,4.342612 c 0,0 -4.86626,2.43313 -5.47454,3.649695 -0.60828,1.216566 -1.21656,3.649696 -2.43313,5.170403 -1.21657,1.520706 -5.47454,4.257977 -6.69111,5.474542 -1.21656,1.216566 -3.38815,5.484216 -3.38815,5.484216 z"
       id="path5679"
       inkscape:connector-curvature="0" /><path
       style="color:#000000;clip-rule:nonzero;display:inline;overflow:visible;visibility:visible;opacity:1;isolation:auto;mix-blend-mode:normal;color-interpolation:sRGB;color-interpolation-filters:linearRGB;solid-color:#000000;solid-opacity:1;fill:#d5f6ff;fill-opacity:0.85643568;fill-rule:evenodd;stroke:none;stroke-width:18.33307076;stroke-linecap:butt;stroke-linejoin:round;stroke-miterlimit:4;stroke-dasharray:none;stroke-dashoffset:0;stroke-opacity:0.6534653;paint-order:stroke fill markers;color-rendering:auto;image-rendering:auto;shape-rendering:auto;text-rendering:auto;enable-background:accumulate"
       d="m 166.57316,30.871385 21.89351,10.013177 17.63494,-6.881932 15.91448,0.860243 8.17229,0.43012 -6.06042,-7.742078 -24.47815,-7.312147 z"
       id="path5685"
       inkscape:connector-curvature="0"
       sodipodi:nodetypes="cccccccc" /><path
       style="color:#000000;clip-rule:nonzero;display:inline;overflow:visible;visibility:visible;opacity:1;isolation:auto;mix-blend-mode:normal;color-interpolation:sRGB;color-interpolation-filters:linearRGB;solid-color:#000000;solid-opacity:1;fill:#00ccff;fill-opacity:0.85643568;fill-rule:evenodd;stroke:none;stroke-width:18.33307076;stroke-linecap:butt;stroke-linejoin:round;stroke-miterlimit:4;stroke-dasharray:none;stroke-dashoffset:0;stroke-opacity:0.6534653;paint-order:stroke fill markers;color-rendering:auto;image-rendering:auto;shape-rendering:auto;text-rendering:auto;enable-background:accumulate"
       d="m 132.57745,151.78843 32.67411,-8.54147 c 0,0 6.36658,-13.77019 10.66779,-14.63043 4.30121,-0.86024 38.36596,-6.44549 38.36596,-6.44549 l -21.37828,27.94909 13.58429,14.44162 -19.29053,0.38281 -4.8296,9.69489 -15.05422,1.72048 -2.15061,12.04338 -29.29551,7.08976 z"
       id="path5687"
       inkscape:connector-curvature="0"
       sodipodi:nodetypes="ccsccccccccc" /><path
       style="color:#000000;clip-rule:nonzero;display:inline;overflow:visible;visibility:visible;opacity:0.9;isolation:auto;mix-blend-mode:normal;color-interpolation:sRGB;color-interpolation-filters:linearRGB;solid-color:#000000;solid-opacity:1;fill:#cef4ff;fill-opacity:0.99215686;fill-rule:evenodd;stroke:none;stroke-width:18.33307076;stroke-linecap:butt;stroke-linejoin:round;stroke-miterlimit:4;stroke-dasharray:none;stroke-dashoffset:0;stroke-opacity:0.6534653;paint-order:stroke fill markers;color-rendering:auto;image-rendering:auto;shape-rendering:auto;text-rendering:auto;enable-background:accumulate"
       d="m 102.33816,37.013475 -33.119291,9.892778 -18.495192,6.881931 27.136491,0.913697 10.609768,5.494883 15.502264,-14.028485 28.89188,2.26763 -10.70237,-9.210696 -0.59936,-7.615947 z"
       id="path5690"
       inkscape:connector-curvature="0"
       sodipodi:nodetypes="cccccccccc" /><path
       style="color:#000000;clip-rule:nonzero;display:inline;overflow:visible;visibility:visible;opacity:0.9;isolation:auto;mix-blend-mode:normal;color-interpolation:sRGB;color-interpolation-filters:linearRGB;solid-color:#000000;solid-opacity:1;fill:#0088aa;fill-opacity:0.67821781;fill-rule:evenodd;stroke:none;stroke-width:18.33307076;stroke-linecap:butt;stroke-linejoin:round;stroke-miterlimit:4;stroke-dasharray:none;stroke-dashoffset:0;stroke-opacity:0.6534653;paint-order:stroke fill markers;color-rendering:auto;image-rendering:auto;shape-rendering:auto;text-rendering:auto;enable-background:accumulate"
       d="m 160.58362,66.690181 4.7981,11.058916 15.05422,1.720491 6.02168,-0.430125 6.88194,-22.366278 50.75425,1.720483 -13.90543,-23.100675 -24.08677,-1.290363 -17.63494,6.881932 z"
       id="path5692"
       inkscape:connector-curvature="0"
       sodipodi:nodetypes="cccccccccc" /><path
       style="color:#000000;clip-rule:nonzero;display:inline;overflow:visible;visibility:visible;opacity:0.9;isolation:auto;mix-blend-mode:normal;color-interpolation:sRGB;color-interpolation-filters:linearRGB;solid-color:#000000;solid-opacity:1;fill:#00aad4;fill-opacity:0.67821781;fill-rule:evenodd;stroke:url(#linearGradient5724);stroke-width:16.65354347;stroke-linecap:square;stroke-linejoin:miter;stroke-miterlimit:4;stroke-dasharray:none;stroke-dashoffset:0;stroke-opacity:0.6534653;paint-order:stroke fill markers;color-rendering:auto;image-rendering:auto;shape-rendering:auto;text-rendering:auto;enable-background:accumulate"
       d="m 57.29125,111.63309 v 23.22651 l 9.892778,12.04339 -3.871087,9.03253 -7.312053,6.45181 8.602415,17.63495 22.796397,18.92531 15.91446,-7.74217 33.54942,11.61326 27.09761,-5.59157 49.03376,6.02169 21.93616,-10.3229 32.25905,4.30121 29.63515,-10.58844 -13.39684,-13.43668 41.01143,-5.12643 10.70934,5.49491 9.00997,-6.83493 -26.64493,-10.3699 0.43013,-18.92531 1.29036,-9.46265 -28.38796,-10.32291 -28.8181,2.58073 -1.15734,27.52675 h -40.50003 l -6.08603,-25.59121 -26.23735,2.79579 h -13.11869 l -9.67771,18.28013 -32.04401,9.46266 -37.42049,-40.00123 z"
       id="path5694"
       inkscape:connector-curvature="0"
       sodipodi:nodetypes="cccccccccccccccccccccccccccccccc" /><path
       style="color:#000000;clip-rule:nonzero;display:inline;overflow:visible;visibility:visible;opacity:0.9;isolation:auto;mix-blend-mode:normal;color-interpolation:sRGB;color-interpolation-filters:linearRGB;solid-color:#000000;solid-opacity:1;fill:#009ec5;fill-opacity:0.67821781;fill-rule:evenodd;stroke:none;stroke-width:18.33307076;stroke-linecap:butt;stroke-linejoin:round;stroke-miterlimit:4;stroke-dasharray:none;stroke-dashoffset:0;stroke-opacity:0.6534653;paint-order:stroke fill markers;color-rendering:auto;image-rendering:auto;shape-rendering:auto;text-rendering:auto;enable-background:accumulate"
       d="m 65.808471,171.19848 -4.980215,7.89719 26.156151,20.07332 17.031913,-7.29939 32.84726,10.94908 29.19756,-5.47454 -0.89478,-8.94083 -27.09761,5.59157 -33.54942,-11.61326 -15.914461,7.74217 z"
       id="path5698"
       inkscape:connector-curvature="0"
       sodipodi:nodetypes="ccccccccccc" /><path
       style="color:#000000;clip-rule:nonzero;display:inline;overflow:visible;visibility:visible;opacity:0.9;isolation:auto;mix-blend-mode:normal;color-interpolation:sRGB;color-interpolation-filters:linearRGB;solid-color:#000000;solid-opacity:1;fill:#2ad4ff;fill-opacity:0.67821781;fill-rule:evenodd;stroke:none;stroke-width:18.33307076;stroke-linecap:butt;stroke-linejoin:round;stroke-miterlimit:4;stroke-dasharray:none;stroke-dashoffset:0;stroke-opacity:0.6534653;paint-order:stroke fill markers;color-rendering:auto;image-rendering:auto;shape-rendering:auto;text-rendering:auto;enable-background:accumulate"
       d="m 215.33203,157.1975 20.80425,26.9046 -1.20517,8.8238 32.25905,4.30121 10.79497,-17.52317 -9.73252,-23.72301 13.38221,-15.20707 -20.76345,6.98839 h -40.50003 z"
       id="path5700"
       inkscape:connector-curvature="0"
       sodipodi:nodetypes="cccccccccc" /><path
       style="color:#000000;clip-rule:nonzero;display:inline;overflow:visible;visibility:visible;opacity:0.9;isolation:auto;mix-blend-mode:normal;color-interpolation:sRGB;color-interpolation-filters:linearRGB;solid-color:#000000;solid-opacity:1;fill:#0088aa;fill-opacity:0.88613862;fill-rule:evenodd;stroke:none;stroke-width:18.33307076;stroke-linecap:butt;stroke-linejoin:round;stroke-miterlimit:4;stroke-dasharray:none;stroke-dashoffset:0;stroke-opacity:0.6534653;paint-order:stroke fill markers;color-rendering:auto;image-rendering:auto;shape-rendering:auto;text-rendering:auto;enable-background:accumulate"
       d="m 96.992221,103.88459 4.247479,-24.224018 18.14861,-14.331247 22.75758,-10.291377 18.43773,11.652233 4.7981,11.058916 -10.10813,1.403548 -17.95364,-5.289731 -19.25181,5.934912 -11.3982,12.258441 -3.65603,12.688563 1.50542,15.6994 9.03254,11.82833 10.96808,8.17229 -7.52711,-0.86024 -12.04338,-9.2476 -7.742177,-11.82832 z"
       id="path5704"
       inkscape:connector-curvature="0" /><path
       style="color:#000000;clip-rule:nonzero;display:inline;overflow:visible;visibility:visible;opacity:0.9;isolation:auto;mix-blend-mode:normal;color-interpolation:sRGB;color-interpolation-filters:linearRGB;solid-color:#000000;solid-opacity:1;fill:#55ddff;fill-opacity:0.88613862;fill-rule:evenodd;stroke:none;stroke-width:18.33307076;stroke-linecap:butt;stroke-linejoin:round;stroke-miterlimit:4;stroke-dasharray:none;stroke-dashoffset:0;stroke-opacity:0.6534653;paint-order:stroke fill markers;color-rendering:auto;image-rendering:auto;shape-rendering:auto;text-rendering:auto;enable-background:accumulate"
       d="m 165.38172,77.749097 15.45841,8.945424 -4.70569,29.448509 -9.67771,18.28013 -12.25845,9.46265 -19.35543,0.86024 -17.85001,-5.16144 7.52711,0.86024 21.7211,1.0753 13.5488,-7.95724 10.3229,-16.7747 -2.15061,-25.162064 -12.68855,-12.473501 z"
       id="path5706"
       inkscape:connector-curvature="0" /><path
       style="color:#000000;clip-rule:nonzero;display:inline;overflow:visible;visibility:visible;opacity:0.9;isolation:auto;mix-blend-mode:normal;color-interpolation:sRGB;color-interpolation-filters:linearRGB;solid-color:#000000;solid-opacity:1;fill:#55ddff;fill-opacity:1;fill-rule:evenodd;stroke:url(#linearGradient5738);stroke-width:32.15196823;stroke-linecap:butt;stroke-linejoin:round;stroke-miterlimit:4;stroke-dasharray:none;stroke-dashoffset:0;stroke-opacity:0.6534653;paint-order:stroke fill markers;color-rendering:auto;image-rendering:auto;shape-rendering:auto;text-rendering:auto;enable-background:accumulate"
       d="m 16.123162,139.15622 12.44604,-16.40636 29.927216,3.28594 9.892778,12.04339 -3.871087,9.03253 -7.312053,6.45181 8.602415,17.63495 -4.980215,7.89719 -29.429444,-14.77912 z"
       id="path5708"
       inkscape:connector-curvature="0" /></g></svg>