<?xml version="1.0" encoding="UTF-8" standalone="no"?>
<!-- Created with Inkscape (http://www.inkscape.org/) -->

<svg
   xmlns:dc="http://purl.org/dc/elements/1.1/"
   xmlns:cc="http://creativecommons.org/ns#"
   xmlns:rdf="http://www.w3.org/1999/02/22-rdf-syntax-ns#"
   xmlns:svg="http://www.w3.org/2000/svg"
   xmlns="http://www.w3.org/2000/svg"
   xmlns:sodipodi="http://sodipodi.sourceforge.net/DTD/sodipodi-0.dtd"
   xmlns:inkscape="http://www.inkscape.org/namespaces/inkscape"
   id="svg2"
   version="1.1"
   inkscape:version="0.91 r13725"
   xml:space="preserve"
   width="375.53415"
   height="206.46838"
   viewBox="0 0 375.53415 206.46838"
   sodipodi:docname="Hielo-en-nave.svg"
   inkscape:export-filename="/home/alumno/paquetes/src/TierraLuna/TierraLuna/imagenes/Hielo-en-nave.png"
   inkscape:export-xdpi="90"
   inkscape:export-ydpi="90"><metadata
     id="metadata8"><rdf:RDF><cc:Work
         rdf:about=""><dc:format>image/svg+xml</dc:format><dc:type
           rdf:resource="http://purl.org/dc/dcmitype/StillImage" /><dc:title></dc:title></cc:Work></rdf:RDF></metadata><defs
     id="defs6"><clipPath
       clipPathUnits="userSpaceOnUse"
       id="clipPath58"><path
         d="M 0,980 1400,980 1400,0 0,0 0,980 Z"
         id="path60"
         inkscape:connector-curvature="0" /></clipPath><clipPath
       clipPathUnits="userSpaceOnUse"
       id="clipPath78"><path
         d="m 71.9106,582.282 103.2334,0 0,-216.531 -103.2334,0 0,216.531 z"
         id="path80"
         inkscape:connector-curvature="0" /></clipPath><clipPath
       clipPathUnits="userSpaceOnUse"
       id="clipPath174"><path
         d="m 30,968.454 115.486,0 0,-360.034 -115.486,0 0,360.034 z"
         id="path176"
         inkscape:connector-curvature="0" /></clipPath><clipPath
       clipPathUnits="userSpaceOnUse"
       id="clipPath206"><path
         d="m 293.543,226.125 96.494,0 0,-216.53125 -96.494,0 0,216.53125 z"
         id="path208"
         inkscape:connector-curvature="0" /></clipPath><clipPath
       clipPathUnits="userSpaceOnUse"
       id="clipPath294"><path
         d="m 242.995,624.888 120.904,0 0,-348.825 -120.904,0 0,348.825 z"
         id="path296"
         inkscape:connector-curvature="0" /></clipPath><clipPath
       clipPathUnits="userSpaceOnUse"
       id="clipPath326"><path
         d="m 532.688,562.649 103.233,0 0,-216.53 -103.233,0 0,216.53 z"
         id="path328"
         inkscape:connector-curvature="0" /></clipPath><clipPath
       clipPathUnits="userSpaceOnUse"
       id="clipPath434"><path
         d="m 457,968.454 202.938,0 0,-387.905 -202.938,0 0,387.905 z"
         id="path436"
         inkscape:connector-curvature="0" /></clipPath><clipPath
       clipPathUnits="userSpaceOnUse"
       id="clipPath470"><path
         d="m 1009.83,574.779 87.84,0 0,-216.531 -87.84,0 0,216.531 z"
         id="path472"
         inkscape:connector-curvature="0" /></clipPath><clipPath
       clipPathUnits="userSpaceOnUse"
       id="clipPath562"><path
         d="m 959.72,968.454 116.73,0 0,-354.643 -116.73,0 0,354.643 z"
         id="path564"
         inkscape:connector-curvature="0" /></clipPath><clipPath
       clipPathUnits="userSpaceOnUse"
       id="clipPath598"><path
         d="m 777.513,277.034 103.232,0 0,-216.5311 -103.232,0 0,216.5311 z"
         id="path600"
         inkscape:connector-curvature="0" /></clipPath><clipPath
       clipPathUnits="userSpaceOnUse"
       id="clipPath710"><path
         d="m 723,601.888 129.312,0 0,-309.264 -129.312,0 0,309.264 z"
         id="path712"
         inkscape:connector-curvature="0" /></clipPath><clipPath
       clipPathUnits="userSpaceOnUse"
       id="clipPath786"><path
         d="m 1216.96,250.711 116.41,0 0,-221.8751 -116.41,0 0,221.8751 z"
         id="path788"
         inkscape:connector-curvature="0" /></clipPath><clipPath
       clipPathUnits="userSpaceOnUse"
       id="clipPath830"><path
         d="m 1180,624.888 107.99,0 0,-364.05 -107.99,0 0,364.05 z"
         id="path832"
         inkscape:connector-curvature="0" /></clipPath></defs><sodipodi:namedview
     pagecolor="#ffffff"
     bordercolor="#666666"
     borderopacity="1"
     objecttolerance="10"
     gridtolerance="10"
     guidetolerance="10"
     inkscape:pageopacity="0"
     inkscape:pageshadow="2"
     inkscape:window-width="1920"
     inkscape:window-height="1004"
     id="namedview4"
     showgrid="false"
     fit-margin-top="4"
     fit-margin-left="4"
     fit-margin-bottom="4"
     fit-margin-right="4"
     inkscape:zoom="2.1796206"
     inkscape:cx="199.48592"
     inkscape:cy="64.237584"
     inkscape:window-x="0"
     inkscape:window-y="27"
     inkscape:window-maximized="1"
     inkscape:current-layer="g56" /><g
     id="g10"
     inkscape:groupmode="layer"
     inkscape:label="spaceships"
     transform="matrix(1.25,0,0,-1.25,6.3411765,1240.0511)"><g
       id="g54"
       transform="translate(-901.10171,465.08475)"><g
         id="g56"
         clip-path="url(#clipPath58)"><g
           id="g742"
           transform="matrix(0,1,-1,0,1294.7228,408.15898)"
           inkscape:transform-center-x="-221.97363"
           inkscape:transform-center-y="5.1823763" /><g
           id="g4475"><path
             inkscape:connector-curvature="0"
             id="path4438"
             d="m 929.72394,469.06773 c -1.83518,-1.46815 -19.81996,-12.84628 -19.81996,-12.84628 l 1.10111,-11.74516 c 0,0 -12.47924,-1.10111 -11.74516,-3.30333 0.73407,-2.20222 11.01109,-17.98478 11.01109,-17.98478 0,0 -1.46815,-14.31442 2.56925,-15.04849 4.0374,-0.73407 17.61775,-4.40443 17.61775,-4.40443 l 12.1122,-6.9737 9.54294,-14.68145 25.69255,68.26876 c 0,0 -35.96957,-6.60665 -35.60253,-4.0374 0.36704,2.56926 -12.47924,22.75626 -12.47924,22.75626 z"
             style="opacity:0.7;fill:#64cffb;fill-opacity:1;fill-rule:evenodd;stroke:none;stroke-width:0.80000001px;stroke-linecap:butt;stroke-linejoin:miter;stroke-opacity:1" /><path
             inkscape:connector-curvature="0"
             id="path4438-2"
             d="m 1011.8206,444.77755 c 2.1709,-1.64686 20.1687,-18.79036 20.1687,-18.79036 l 12.446,5.19726 c 0,0 5.0903,-14.16042 7.2594,-12.57168 2.1692,1.58873 16.1502,18.81385 16.1502,18.81385 0,0 16.0447,3.06292 15.5851,8.00767 -0.4597,4.94477 -0.6976,21.97755 -0.6976,21.97755 l 3.8167,16.42494 13.011,16.00359 -82.3496,7.15078 c 0,0 18.4102,-39.67076 15.4981,-40.09992 -2.9122,-0.42927 -20.888,-22.11368 -20.888,-22.11368 z"
             style="opacity:0.7;fill:#64cffb;fill-opacity:1;fill-rule:evenodd;stroke:none;stroke-width:0.80000001px;stroke-linecap:butt;stroke-linejoin:miter;stroke-opacity:1" /><path
             sodipodi:nodetypes="csccsccccccccccccc"
             inkscape:connector-curvature="0"
             id="path4455"
             d="m 932.2932,463.56218 c 0,0 7.34073,8.80887 10.27702,9.17591 2.93629,0.36704 11.37812,2.56925 11.37812,2.56925 l 12.47924,9.54295 c 0,0 11.74516,3.30333 13.58034,3.30333 1.83519,0 17.25071,5.87258 17.25071,5.87258 l 7.34077,-3.67037 5.5055,12.1122 17.2507,-7.70776 9.91,-23.85736 -15.7826,-19.81997 -14.6814,-33.76734 -36.33662,15.41553 5.87258,15.78256 -30.09698,-4.0374 -5.13851,1.46815 -10.27702,17.98478 z"
             style="opacity:0.8;fill:#aff1fc;fill-opacity:1;fill-rule:evenodd;stroke:none;stroke-width:0.80000001px;stroke-linecap:butt;stroke-linejoin:miter;stroke-opacity:1" /><path
             inkscape:connector-curvature="0"
             id="path4457"
             d="m 1095.6244,495.12731 14.6814,-27.16069 c 0,0 11.7452,28.99587 13.5804,28.2618 1.8352,-0.73408 17.2507,0.73407 17.2507,0.73407 0,0 6.2396,12.84627 7.3407,14.31442 1.1011,1.46814 11.0111,12.47923 11.0111,12.47923 0,0 5.5056,-13.58034 6.9737,-13.94738 1.4681,-0.36704 19.0859,6.97369 19.0859,6.97369 0,0 -1.8352,-9.90998 -2.9363,-12.47923 -1.1011,-2.56926 -5.1385,-22.38922 -5.1385,-22.38922 l 13.5803,2.93629 2.2023,-15.04849 -8.0748,-15.78257 0,-17.61774 0,-9.90998 c 0,0 -15.0485,12.84627 -16.8837,12.47923 -1.8352,-0.36703 -30.097,-20.92107 -30.097,-20.92107 0,0 -0.367,37.07067 -3.6704,36.70364 -3.3033,-0.36704 -35.6025,-38.90585 -34.8684,-37.43771 0.734,1.46815 -17.2507,37.80474 -17.2507,37.80474 l 1.1011,24.59144 6.9737,12.84627 z"
             style="opacity:0.8;fill:#6acff7;fill-opacity:1;fill-rule:evenodd;stroke:none;stroke-width:0.80000001px;stroke-linecap:butt;stroke-linejoin:miter;stroke-opacity:1" /><path
             inkscape:connector-curvature="0"
             id="path4459"
             d="m 970.46498,433.4652 -13.58035,-34.50142 9.17591,-8.07479 15.78257,0 11.37812,-8.44184 16.14957,-0.73408 13.2133,-1.10111 8.0748,-5.50554 13.5804,4.77147 -2.2022,21.28811 -3.6704,18.71886 5.5055,11.37812 -12.1121,-4.77147 -15.4156,15.04849 -9.91,-23.12329 z"
             style="opacity:0.8;fill:#6acff7;fill-opacity:1;fill-rule:evenodd;stroke:none;stroke-width:0.80000001px;stroke-linecap:butt;stroke-linejoin:miter;stroke-opacity:1" /><path
             sodipodi:nodetypes="ccccccccssccccccccccccccccc"
             inkscape:connector-curvature="0"
             id="path4461"
             d="m 1043.5052,432.36409 -6.2396,-12.84627 4.588,-18.71886 0.734,-18.16829 3.8539,-4.58796 8.9924,2.38574 15.0485,8.80887 4.5879,9.90998 c 0,0 15.4156,0.36704 15.5991,-0.73407 0.1835,-1.10111 6.4231,-18.53534 7.1572,-19.08589 0.7341,-0.55055 13.0298,-1.28463 13.0298,-1.28463 l 6.7902,4.0374 7.1572,-6.97369 0.9176,7.70777 -1.1011,14.49793 -1.1012,28.62883 -4.4044,14.68146 -18.9023,-20.92108 -12.1123,25.32551 -5.322,10.27702 0,-10.46053 -10.8276,-6.0561 -5.322,0 -4.955,-7.52425 -10.0935,-11.56164 -6.6066,12.84627 z"
             style="opacity:0.8;fill:#aff1fc;fill-opacity:1;fill-rule:evenodd;stroke:none;stroke-width:0.80000001px;stroke-linecap:butt;stroke-linejoin:miter;stroke-opacity:1" /><path
             sodipodi:nodetypes="ccccccccccscccccsccccccc"
             inkscape:connector-curvature="0"
             id="path4463"
             d="m 1118.5024,439.98673 c 1.5572,1.1679 15.3125,15.83157 15.3125,15.83157 l 5.8396,-7.52649 -0.9084,-12.32786 -0.1298,-16.73993 10.1218,7.39671 19.2056,14.1446 16.0911,-12.19809 -2.7252,-2.59534 4.2824,-12.58739 c 0,0 1.8167,-12.06833 1.8167,-12.5874 0,-0.51907 -4.6716,-8.43485 -4.6716,-8.43485 l -14.5339,-13.7553 5.3204,-11.28973 -15.0529,-2.3358 -12.0684,2.59534 c 0,0 -5.7097,4.02278 -6.3585,3.63347 -0.6488,-0.3893 -12.0684,-0.51906 -12.0684,-0.51906 l 9.473,10.12182 c 0,0 -6.2288,-0.90837 -5.9693,-0.25953 0.2596,0.64883 1.4275,6.48834 1.4275,6.48834 l -8.3051,4.80138 -1.5572,34.25848 z"
             style="opacity:0.7;fill:#64cffb;fill-opacity:1;fill-rule:evenodd;stroke:none;stroke-width:0.80000001px;stroke-linecap:butt;stroke-linejoin:miter;stroke-opacity:1" /><path
             inkscape:connector-curvature="0"
             id="path4467"
             d="m 912.43253,417.40728 c 0,0 -1.81674,-4.80137 -1.42744,-5.32045 0.3893,-0.51906 1.68697,-2.3358 1.68697,-2.3358 l 4.41208,-1.42744 c 0,0 3.63347,-0.3893 5.45021,-0.64883 1.81674,-0.25953 9.86229,-3.50371 9.86229,-3.50371 l 8.69438,-4.80138 -9.34322,7.39672 -5.57998,2.59534 -9.86229,2.20604 z"
             style="fill:#d5f9fd;fill-opacity:1;fill-rule:evenodd;stroke:none;stroke-width:0.80000001px;stroke-linecap:butt;stroke-linejoin:miter;stroke-opacity:1" /><path
             inkscape:connector-curvature="0"
             id="path4469"
             d="m 986.14015,389.37762 7.39672,-5.70975 19.98413,-1.29767 10.2516,-0.90837 7.2669,-5.19068 c 0,0 5.4502,1.94651 4.4121,1.68698 -1.0381,-0.25954 -10.2516,3.89301 -10.2516,3.89301 l -2.206,1.03813 -4.1526,-0.51907 -22.31989,1.94651 -4.15254,1.81673 z"
             style="fill:#d5f9fd;fill-opacity:1;fill-rule:evenodd;stroke:none;stroke-width:0.80000001px;stroke-linecap:butt;stroke-linejoin:miter;stroke-opacity:1" /><path
             inkscape:connector-curvature="0"
             id="path4473"
             d="m 1022.3451,504.8702 1.8168,-4.93114 4.9311,2.59534 55.5403,-3.37394 z"
             style="fill:#d5f9fd;fill-opacity:1;fill-rule:evenodd;stroke:none;stroke-width:0.80000001px;stroke-linecap:butt;stroke-linejoin:miter;stroke-opacity:1" /></g></g></g></g></svg>