<?xml version="1.0" encoding="UTF-8" standalone="no"?>
<!-- Created with Inkscape (http://www.inkscape.org/) -->

<svg
   xmlns:dc="http://purl.org/dc/elements/1.1/"
   xmlns:cc="http://creativecommons.org/ns#"
   xmlns:rdf="http://www.w3.org/1999/02/22-rdf-syntax-ns#"
   xmlns:svg="http://www.w3.org/2000/svg"
   xmlns="http://www.w3.org/2000/svg"
   xmlns:sodipodi="http://sodipodi.sourceforge.net/DTD/sodipodi-0.dtd"
   xmlns:inkscape="http://www.inkscape.org/namespaces/inkscape"
   width="67.112305mm"
   height="68.253716mm"
   viewBox="0 0 67.112305 68.253716"
   version="1.1"
   id="svg8"
   inkscape:version="0.91 r13725"
   sodipodi:docname="reparacion_bot.svg"
   inkscape:export-filename="/home/alumno/paquetes/src/TierraLuna/TierraLuna/imagenes/reparacion_bot.png"
   inkscape:export-xdpi="90"
   inkscape:export-ydpi="90">
  <defs
     id="defs2" />
  <sodipodi:namedview
     id="base"
     pagecolor="#ffffff"
     bordercolor="#666666"
     borderopacity="1.0"
     inkscape:pageopacity="0.0"
     inkscape:pageshadow="2"
     inkscape:zoom="1.979899"
     inkscape:cx="53.927634"
     inkscape:cy="199.1675"
     inkscape:document-units="mm"
     inkscape:current-layer="g4349"
     showgrid="false"
     fit-margin-top="0"
     fit-margin-left="0"
     fit-margin-right="0"
     fit-margin-bottom="0"
     inkscape:window-width="1920"
     inkscape:window-height="1004"
     inkscape:window-x="0"
     inkscape:window-y="27"
     inkscape:window-maximized="1" />
  <metadata
     id="metadata5">
    <rdf:RDF>
      <cc:Work
         rdf:about="">
        <dc:format>image/svg+xml</dc:format>
        <dc:type
           rdf:resource="http://purl.org/dc/dcmitype/StillImage" />
        <dc:title />
      </cc:Work>
    </rdf:RDF>
  </metadata>
  <g
     inkscape:label="Capa 1"
     inkscape:groupmode="layer"
     id="layer1"
     transform="translate(-39.524811,-97.160799)">
    <g
       id="g4349"
       transform="matrix(0.72342542,0,0,0.72342542,97.345925,48.733599)">
      <path
         inkscape:connector-curvature="0"
         id="path4194"
         d="m -69.817956,208.9214 c -0.273965,0.86594 2.990487,12.37748 2.990487,12.37748 l -11.08341,12.44972 -1.093432,-1.06039 10.877939,-11.80028 -4.700342,-11.48952 1.745307,-3.25828 2.381328,0.7534 z"
         style="fill:#4d4d4d;fill-opacity:1;fill-rule:evenodd;stroke:none;stroke-width:0.28200001;stroke-linecap:butt;stroke-linejoin:miter;stroke-miterlimit:4;stroke-dasharray:none;stroke-opacity:1"
         transform="translate(4.0317449,-90.714292)" />
      <path
         sodipodi:nodetypes="ccccccccscccccccc"
         inkscape:connector-curvature="0"
         id="path4171"
         d="m -64.715189,177.04176 9.83552,0 -0.855263,9.69297 24.517524,0 0.285087,-9.69297 11.403501,-0.28509 0,-5.70175 8.837711,0.28509 c 0,0 0.570176,-9.69298 -0.570173,-9.69298 l -25.372787,0.28509 0,-4.27631 -13.451288,0 0,3.86641 -25.320611,-0.28509 0,10.95814 10.690779,0 z"
         style="fill:#3b424f;fill-opacity:1;fill-rule:evenodd;stroke:none;stroke-width:0.28222224px;stroke-linecap:butt;stroke-linejoin:miter;stroke-opacity:1"
         transform="translate(4.0317449,-90.714292)" />
      <circle
         r="5.6829877"
         cy="78.469994"
         cx="-30.137571"
         id="path4173-5"
         style="opacity:1;fill:#1a1a1a;fill-opacity:1;stroke:none;stroke-width:3.12519693;stroke-linecap:butt;stroke-linejoin:miter;stroke-miterlimit:4;stroke-dasharray:none;stroke-dashoffset:0;stroke-opacity:1" />
      <circle
         cy="78.694527"
         cx="-29.947733"
         id="path4173"
         style="opacity:1;fill:#550000;fill-opacity:1;stroke:none;stroke-width:3.12519693;stroke-linecap:butt;stroke-linejoin:miter;stroke-miterlimit:4;stroke-dasharray:none;stroke-dashoffset:0;stroke-opacity:1"
         r="4.5939021" />
      <path
         inkscape:connector-curvature="0"
         id="path4194-6"
         d="m -29.901985,216.09328 c 0.120164,1.134 9.663462,12.73684 9.663462,12.73684 l -6.492279,19.89573 -1.791125,-0.67025 6.582406,-19.04525 -11.184222,-10.85559 0.369848,-4.62612 3.118503,-0.33045 z"
         style="fill:#4d4d4d;fill-opacity:1;fill-rule:evenodd;stroke:none;stroke-width:0.28200001;stroke-linecap:butt;stroke-linejoin:miter;stroke-miterlimit:4;stroke-dasharray:none;stroke-opacity:1"
         transform="translate(4.0317449,-90.714292)" />
      <path
         sodipodi:nodetypes="ccscccccc"
         inkscape:connector-curvature="0"
         id="path4211"
         d="m -61.151595,211.25226 -3.42105,13.96929 c 0,0 3.42105,3.70614 3.42105,5.13157 0,1.42544 -2.565787,16.82017 -2.565787,16.82017 l 1.710526,-0.28509 2.2807,-19.10086 -3.421051,-3.13597 4.846488,-14.53946 z"
         style="fill:#4d4d4d;fill-opacity:1;fill-rule:evenodd;stroke:none;stroke-width:0.28222224px;stroke-linecap:butt;stroke-linejoin:miter;stroke-opacity:1"
         transform="translate(4.0317449,-90.714292)" />
      <path
         sodipodi:nodetypes="ccscccccc"
         inkscape:connector-curvature="0"
         id="path4211-7"
         d="m -38.970535,209.33933 -2.026008,17.62988 c 0,0 -5.546349,2.82286 -6.157019,4.47226 -0.610673,1.64942 -4.237007,20.56231 -4.237007,20.56231 l -1.857166,-1.06269 5.543968,-23.07923 5.30208,-2.1631 0.620863,-18.90031 z"
         style="fill:#4d4d4d;fill-opacity:1;fill-rule:evenodd;stroke:none;stroke-width:0.28222224px;stroke-linecap:butt;stroke-linejoin:miter;stroke-opacity:1"
         transform="translate(4.0317449,-90.714292)" />
      <path
         sodipodi:nodetypes="ccscccccc"
         inkscape:connector-curvature="0"
         id="path4211-5"
         d="m -46.376201,209.06059 0.0919,14.20725 c 0,0 -5.640364,1.80655 -6.087822,3.09799 -0.447454,1.29143 -1.922259,16.40232 -1.922259,16.40232 l -2.148994,-1.03389 3.011267,-18.33934 5.461383,-1.28998 -1.778322,-15.37015 z"
         style="fill:#4d4d4d;fill-opacity:1;fill-rule:evenodd;stroke:none;stroke-width:0.28222224px;stroke-linecap:butt;stroke-linejoin:miter;stroke-opacity:1"
         transform="translate(4.0317449,-90.714292)" />
      <path
         inkscape:connector-curvature="0"
         id="path4192"
         d="m -19.243732,202.41455 -2.2807,8.83771 -2.850876,0 -2.850873,-5.13158 -1.995614,8.26754 -6.271926,1.42544 0.570177,-8.55263 -5.70175,2.2807 -1.995613,4.27632 -8.552626,-1.71053 0.28509,-4.84649 -6.271926,-0.85526 -0.285087,5.41666 -7.697363,-1.14035 c 0,0 1.14035,-5.13157 -1.140349,-4.5614 -2.2807,0.57018 -7.412276,5.98684 -7.412276,5.98684 l -1.710524,-2.2807 3.706137,-9.40789 z"
         style="fill:#808080;fill-opacity:1;fill-rule:evenodd;stroke:none;stroke-width:0.28200001;stroke-linecap:butt;stroke-linejoin:miter;stroke-miterlimit:4;stroke-dasharray:none;stroke-opacity:1"
         transform="translate(4.0317449,-90.714292)" />
      <path
         inkscape:connector-curvature="0"
         id="path4154"
         d="m -79.397194,181.60316 c -1.995613,1.42544 -4.561399,5.70175 -4.561399,5.70175 l 6.271923,15.67982 65.855209,0 7.6973604,-14.25438 -4.84648,-7.12719 z"
         style="fill:#3b424f;fill-opacity:1;fill-rule:evenodd;stroke:none;stroke-width:0.88200003;stroke-linecap:butt;stroke-linejoin:miter;stroke-miterlimit:4;stroke-dasharray:none;stroke-opacity:1"
         transform="translate(4.0317449,-90.714292)" />
      <circle
         r="1.1087302"
         cy="226.49719"
         cx="-41.743523"
         id="path4268"
         style="opacity:1;fill:#666666;fill-opacity:1;stroke:none;stroke-width:0.28200001;stroke-linecap:butt;stroke-linejoin:miter;stroke-miterlimit:4;stroke-dasharray:none;stroke-dashoffset:0;stroke-opacity:1"
         transform="translate(4.0317449,-90.714292)" />
      <circle
         r="1.1087302"
         cy="222.86861"
         cx="-47.287174"
         id="path4268-6"
         style="opacity:1;fill:#666666;fill-opacity:1;stroke:none;stroke-width:0.28200001;stroke-linecap:butt;stroke-linejoin:miter;stroke-miterlimit:4;stroke-dasharray:none;stroke-dashoffset:0;stroke-opacity:1"
         transform="translate(4.0317449,-90.714292)" />
      <circle
         r="1.1087302"
         cy="228.91624"
         cx="-21.282413"
         id="path4268-2"
         style="opacity:1;fill:#666666;fill-opacity:1;stroke:none;stroke-width:0.28200001;stroke-linecap:butt;stroke-linejoin:miter;stroke-miterlimit:4;stroke-dasharray:none;stroke-dashoffset:0;stroke-opacity:1"
         transform="translate(4.0317449,-90.714292)" />
      <circle
         r="1.1087302"
         cy="225.18686"
         cx="-63.817333"
         id="path4268-6-1"
         style="opacity:1;fill:#666666;fill-opacity:1;stroke:none;stroke-width:0.28200001;stroke-linecap:butt;stroke-linejoin:miter;stroke-miterlimit:4;stroke-dasharray:none;stroke-dashoffset:0;stroke-opacity:1"
         transform="translate(4.0317449,-90.714292)" />
      <circle
         r="1.1087302"
         cy="221.15512"
         cx="-67.5467"
         id="path4268-6-2"
         style="opacity:1;fill:#666666;fill-opacity:1;stroke:none;stroke-width:0.28200001;stroke-linecap:butt;stroke-linejoin:miter;stroke-miterlimit:4;stroke-dasharray:none;stroke-dashoffset:0;stroke-opacity:1"
         transform="translate(4.0317449,-90.714292)" />
      <rect
         y="187.01982"
         x="-81.962982"
         height="1.4254376"
         width="75.548187"
         id="rect4190"
         style="opacity:1;fill:#d40000;fill-opacity:1;stroke:none;stroke-width:3.12519693;stroke-linecap:butt;stroke-linejoin:miter;stroke-miterlimit:4;stroke-dasharray:none;stroke-dashoffset:0;stroke-opacity:1"
         transform="translate(4.0317449,-90.714292)" />
      <path
         inkscape:connector-curvature="0"
         id="path4236"
         d="m 0.82418537,127.87897 2.85087343,-0.64145 1.4967091,0.78399 2.6370618,0.4989 1.6392517,0.71272 3.3497786,1.14035 -4.2763128,0.71272 c 0,0 -3.9912253,0.99781 -4.2763121,0.99781 -0.2850867,0 -1.995613,-0.35636 -1.995613,-0.35636 L 0.254009,131.0862 Z"
         style="fill:#0b70ca;fill-opacity:1;fill-rule:evenodd;stroke:#57a7e6;stroke-width:0.28222224px;stroke-linecap:butt;stroke-linejoin:miter;stroke-opacity:1" />
      <path
         inkscape:connector-curvature="0"
         id="path4236-3"
         d="m 0.1913786,128.66364 2.1555778,-0.35624 1.1316796,0.4354 1.9939122,0.27708 1.2394574,0.39583 2.5328068,0.63333 -3.2333698,0.39583 c 0,0 -3.0178113,0.55416 -3.2333688,0.55416 -0.2155576,0 -1.508906,-0.19792 -1.508906,-0.19792 l -1.50890587,-0.35624 z"
         style="fill:#80b3ff;fill-opacity:1;fill-rule:evenodd;stroke:#57a7e6;stroke-width:0.18288504px;stroke-linecap:butt;stroke-linejoin:miter;stroke-opacity:1" />
      <path
         inkscape:connector-curvature="0"
         id="path4234"
         d="m -16.922512,116.26165 c 0.285089,1.14035 8.8377124,7.98245 8.8377124,7.98245 l 9.1227993,2.85088 c 0,0 -0.28508673,5.70175 -1.71052343,4.5614 -1.42543957,-1.14035 -8.55262587,-5.70175 -8.55262587,-5.70175 l -9.1227994,-7.69737 z"
         style="fill:#4d4d4d;fill-opacity:1;fill-rule:evenodd;stroke:none;stroke-width:0.28222224px;stroke-linecap:butt;stroke-linejoin:miter;stroke-opacity:1" />
      <circle
         r="1.1087302"
         cy="124.89717"
         cx="-8.6832056"
         id="path4268-9"
         style="opacity:1;fill:#666666;fill-opacity:1;stroke:none;stroke-width:0.28200001;stroke-linecap:butt;stroke-linejoin:miter;stroke-miterlimit:4;stroke-dasharray:none;stroke-dashoffset:0;stroke-opacity:1" />
    </g>
    <g
       id="g4532"
       inkscape:export-xdpi="90"
       inkscape:export-ydpi="90"
       transform="matrix(0.80655681,0,0,0.80655681,-13.167346,-36.823954)">
      <g
         id="g4150"
         transform="matrix(0.46398122,0,0,0.46398122,66.704297,102.16808)">
        <circle
           r="17.55401"
           cy="204.94513"
           cx="113.96223"
           id="path4148"
           style="opacity:1;fill:#29e11a;fill-opacity:1;stroke:none;stroke-width:0.24373978;stroke-linecap:butt;stroke-linejoin:miter;stroke-miterlimit:4;stroke-dasharray:none;stroke-dashoffset:0;stroke-opacity:1" />
        <path
           sodipodi:nodetypes="csccccscccccccccccccsccsscccsccccssscccccccccccccssccc"
           inkscape:connector-curvature="0"
           style="color:#000000;clip-rule:nonzero;display:inline;overflow:visible;visibility:visible;opacity:1;isolation:auto;mix-blend-mode:normal;color-interpolation:sRGB;color-interpolation-filters:linearRGB;solid-color:#000000;solid-opacity:1;fill:#b3b3b3;fill-opacity:1;fill-rule:evenodd;stroke:#000000;stroke-width:1.18600011;stroke-linecap:butt;stroke-linejoin:round;stroke-miterlimit:4;stroke-dasharray:none;stroke-dashoffset:0;stroke-opacity:1;paint-order:stroke fill markers;color-rendering:auto;image-rendering:auto;shape-rendering:auto;text-rendering:auto;enable-background:accumulate"
           d="m 121.61771,191.63229 c -0.85417,-0.0183 -1.88095,0.28894 -2.83167,1.43969 -1.78623,2.16204 -0.29856,4.73036 -0.29856,4.73036 l -4.70157,4.95714 2.01515,2.05182 4.957,-5.14112 c 0,0 2.95697,1.42663 4.93724,-1.13425 1.63333,-2.1122 -0.0785,-4.78452 -0.0785,-4.78452 l -2.60207,3.08835 -2.22767,-1.63074 2.74187,-2.99126 c 0,0 -0.64233,-0.44403 -1.55637,-0.55921 -0.11425,-0.0144 -0.23279,-0.0236 -0.35481,-0.0263 z m -15.61492,0.7011 c -0.18815,-0.001 -0.36871,0.0138 -0.53941,0.0402 -0.91041,0.14105 -1.53991,0.60317 -1.53991,0.60317 l 2.82542,2.91251 -2.18058,1.69304 -2.68853,-3.01335 c 0,0 -1.63544,2.71967 0.0571,4.78473 2.05205,2.50373 4.96745,0.99383 4.96745,0.99383 l 11.8961,12.39696 c 0,0 -0.67338,2.3597 0.54024,4.00509 1.21362,1.64541 3.94385,1.94697 5.68876,0.24981 1.63864,-1.59378 1.22098,-3.92547 -0.0731,-5.32331 -1.21048,-1.3075 -3.97509,-0.62463 -3.97509,-0.62463 l -11.86026,-12.6353 c 0,0 1.41447,-2.60918 -0.43232,-4.71973 -0.91274,-1.0431 -1.87047,-1.35747 -2.68583,-1.36301 z m 5.31615,13.51481 -4.32878,4.92031 c 0,0 -2.78277,-0.60415 -3.95571,0.73714 -1.25398,1.43394 -1.60564,3.7766 0.0775,5.32331 1.79232,1.64702 4.51309,1.26806 5.67959,-0.41107 1.16651,-1.67914 0.4267,-4.01864 0.4267,-4.01864 l 4.07231,-4.54382 z m -5.65992,6.45084 c 0.0467,-0.001 0.0935,-9.9e-4 0.14022,0.001 0.066,0.003 0.13175,0.009 0.1971,0.0183 1.08301,0.15647 1.83406,1.16136 1.67741,2.24434 -0.15657,1.08283 -1.16128,1.83373 -2.24412,1.67721 -1.08274,-0.15658 -1.83361,-1.16115 -1.67721,-2.24392 0.13791,-0.95426 0.94279,-1.67066 1.9066,-1.697 z m 16.75416,0.24522 c 0.94199,0.0266 1.73486,0.7131 1.89598,1.64159 0.18704,1.07794 -0.53512,2.10344 -1.61304,2.29059 -1.07802,0.18717 -2.10365,-0.53502 -2.2908,-1.61304 -0.18716,-1.07809 0.53514,-2.10375 1.61325,-2.2908 0.13026,-0.0226 0.26246,-0.0321 0.39461,-0.0283 z"
           id="path4485" />
      </g>
    </g>
  </g>
</svg>
