<?xml version="1.0" encoding="UTF-8" standalone="no"?>
<!-- Created with Inkscape (http://www.inkscape.org/) -->

<svg
   xmlns:dc="http://purl.org/dc/elements/1.1/"
   xmlns:cc="http://creativecommons.org/ns#"
   xmlns:rdf="http://www.w3.org/1999/02/22-rdf-syntax-ns#"
   xmlns:svg="http://www.w3.org/2000/svg"
   xmlns="http://www.w3.org/2000/svg"
   xmlns:sodipodi="http://sodipodi.sourceforge.net/DTD/sodipodi-0.dtd"
   xmlns:inkscape="http://www.inkscape.org/namespaces/inkscape"
   width="98.442307mm"
   height="98.442299mm"
   viewBox="0 0 98.442307 98.442299"
   version="1.1"
   id="svg8"
   inkscape:version="0.92.1 r15371"
   sodipodi:docname="reparacion.svg">
  <defs
     id="defs2" />
  <sodipodi:namedview
     id="base"
     pagecolor="#ffffff"
     bordercolor="#666666"
     borderopacity="1.0"
     inkscape:pageopacity="0.0"
     inkscape:pageshadow="2"
     inkscape:zoom="0.49497475"
     inkscape:cx="-14.083139"
     inkscape:cy="74.575045"
     inkscape:document-units="mm"
     inkscape:current-layer="layer1"
     showgrid="false"
     fit-margin-top="0"
     fit-margin-left="0"
     fit-margin-right="0"
     fit-margin-bottom="0"
     inkscape:window-width="1920"
     inkscape:window-height="1028"
     inkscape:window-x="0"
     inkscape:window-y="24"
     inkscape:window-maximized="1" />
  <metadata
     id="metadata5">
    <rdf:RDF>
      <cc:Work
         rdf:about="">
        <dc:format>image/svg+xml</dc:format>
        <dc:type
           rdf:resource="http://purl.org/dc/dcmitype/StillImage" />
        <dc:title></dc:title>
      </cc:Work>
    </rdf:RDF>
  </metadata>
  <g
     inkscape:label="Capa 1"
     inkscape:groupmode="layer"
     id="layer1"
     transform="translate(-36.673937,-94.792978)">
    <g
       id="g4532"
       inkscape:export-xdpi="90"
       inkscape:export-ydpi="90">
      <circle
         r="42.995152"
         cy="144.01413"
         cx="85.895088"
         id="path4509"
         style="color:#000000;clip-rule:nonzero;display:inline;overflow:visible;visibility:visible;opacity:1;isolation:auto;mix-blend-mode:normal;color-interpolation:sRGB;color-interpolation-filters:linearRGB;solid-color:#000000;solid-opacity:1;fill:#00ff00;fill-opacity:1;fill-rule:evenodd;stroke:#00ff00;stroke-width:12.45199966;stroke-linecap:butt;stroke-linejoin:round;stroke-miterlimit:4;stroke-dasharray:none;stroke-dashoffset:0;stroke-opacity:1;paint-order:stroke fill markers;color-rendering:auto;image-rendering:auto;shape-rendering:auto;text-rendering:auto;enable-background:accumulate" />
      <path
         sodipodi:nodetypes="zsccscz"
         inkscape:connector-curvature="0"
         id="path4519"
         d="m 89.983009,95.966441 c -36.546171,-1.735233 -51.72159,27.399909 -52.193033,44.511339 -0.560019,20.32639 6.966431,25.99629 6.966431,25.99629 0,0 7.930919,-13.65234 22.775976,-19.58816 14.845058,-5.9358 30.910254,4.15507 46.975457,-1.18716 16.06519,-5.34222 20.24854,-7.30008 20.24854,-7.30008 0,0 -8.2272,-40.696995 -44.773371,-42.432229 z"
         style="color:#000000;clip-rule:nonzero;display:inline;overflow:visible;visibility:visible;opacity:0.54000005;isolation:auto;mix-blend-mode:normal;color-interpolation:sRGB;color-interpolation-filters:linearRGB;solid-color:#000000;solid-opacity:1;fill:#ffffff;fill-opacity:1;fill-rule:evenodd;stroke:none;stroke-width:13.21640491;stroke-linecap:butt;stroke-linejoin:round;stroke-miterlimit:4;stroke-dasharray:none;stroke-dashoffset:0;stroke-opacity:1;paint-order:stroke fill markers;color-rendering:auto;image-rendering:auto;shape-rendering:auto;text-rendering:auto;enable-background:accumulate" />
      <path
         id="path4485"
         d="m 104.43755,111.33274 c -2.11858,-0.0454 -4.665269,0.71665 -7.023342,3.57084 -4.430357,5.36247 -0.740523,11.73262 -0.740523,11.73262 l -9.805085,11.05772 4.998143,5.08909 10.438637,-11.51402 c 0,0 7.33412,3.53843 12.24577,-2.81327 4.05111,-5.23886 -0.19482,-11.86697 -0.19482,-11.86697 l -6.45387,7.65999 -5.52525,-4.04471 6.80062,-7.41918 c 0,0 -1.59315,-1.10131 -3.86023,-1.387 -0.28339,-0.0357 -0.57739,-0.0586 -0.88005,-0.0651 z m -38.729418,1.73891 c -0.466685,-0.003 -0.914511,0.0341 -1.337902,0.0997 -2.258081,0.34983 -3.819404,1.49603 -3.819404,1.49603 l 7.007839,7.22385 -5.408454,4.19922 -6.668328,-7.47396 c 0,0 -4.056364,6.74554 0.141595,11.86749 5.089681,6.20995 12.320696,2.46497 12.320696,2.46497 l 29.50569,30.74799 c 0,0 -1.670151,5.85271 1.339971,9.93376 3.010125,4.08107 9.781855,4.82903 14.109735,0.6196 4.06429,-3.95304 3.02837,-9.73629 -0.18139,-13.20332 -3.00233,-3.24297 -9.85934,-1.54926 -9.85934,-1.54926 L 73.442027,128.15858 c 0,0 3.50827,-6.4715 -1.072284,-11.70626 -2.263868,-2.5872 -4.639308,-3.36691 -6.661611,-3.38067 z m 11.859742,35.11155 -9.410795,10.61279 c 0,0 -6.902072,-1.49845 -9.811287,1.82831 -3.110215,3.5566 -3.982443,9.36706 0.192235,13.20333 4.445439,4.08509 11.193735,3.14515 14.086996,-1.01958 2.893251,-4.16473 1.058333,-9.96735 1.058333,-9.96735 l 8.774658,-9.67899 z m -12.712401,14.40894 a 4.9136905,4.9136905 0 0 1 0.347781,0.003 4.9136905,4.9136905 0 0 1 0.48886,0.0455 4.9136905,4.9136905 0 0 1 4.16047,5.56659 4.9136905,4.9136905 0 0 1 -5.566069,4.15995 4.9136905,4.9136905 0 0 1 -4.159953,-5.56555 4.9136905,4.9136905 0 0 1 4.728911,-4.20905 z m 41.555087,0.60823 a 4.9136905,4.9136905 0 0 1 4.70255,4.07159 4.9136905,4.9136905 0 0 1 -4.00079,5.68131 4.9136905,4.9136905 0 0 1 -5.68182,-4.00079 4.9136905,4.9136905 0 0 1 4.00131,-5.68183 4.9136905,4.9136905 0 0 1 0.97875,-0.0703 z"
         style="color:#000000;clip-rule:nonzero;display:inline;overflow:visible;visibility:visible;opacity:1;isolation:auto;mix-blend-mode:normal;color-interpolation:sRGB;color-interpolation-filters:linearRGB;solid-color:#000000;solid-opacity:1;fill:#d5ffd5;fill-opacity:1;fill-rule:evenodd;stroke:#327900;stroke-width:5.17399979;stroke-linecap:butt;stroke-linejoin:round;stroke-miterlimit:4;stroke-dasharray:none;stroke-dashoffset:0;stroke-opacity:1;paint-order:stroke fill markers;color-rendering:auto;image-rendering:auto;shape-rendering:auto;text-rendering:auto;enable-background:accumulate"
         inkscape:connector-curvature="0" />
    </g>
  </g>
</svg>
