<?xml version="1.0" encoding="UTF-8" standalone="no"?>
<!-- Created with Inkscape (http://www.inkscape.org/) -->

<svg
   xmlns:dc="http://purl.org/dc/elements/1.1/"
   xmlns:cc="http://creativecommons.org/ns#"
   xmlns:rdf="http://www.w3.org/1999/02/22-rdf-syntax-ns#"
   xmlns:svg="http://www.w3.org/2000/svg"
   xmlns="http://www.w3.org/2000/svg"
   xmlns:sodipodi="http://sodipodi.sourceforge.net/DTD/sodipodi-0.dtd"
   xmlns:inkscape="http://www.inkscape.org/namespaces/inkscape"
   id="svg2"
   version="1.1"
   inkscape:version="0.91 r13725"
   xml:space="preserve"
   width="355.98502"
   height="178.96561"
   viewBox="0 0 355.98502 178.9656"
   sodipodi:docname="nave_01.svg"
   inkscape:export-filename="/home/alumno/Escritorio/ejemploPILAS/imagenes/lanave.png"
   inkscape:export-xdpi="90"
   inkscape:export-ydpi="90"><metadata
     id="metadata8"><rdf:RDF><cc:Work
         rdf:about=""><dc:format>image/svg+xml</dc:format><dc:type
           rdf:resource="http://purl.org/dc/dcmitype/StillImage" /><dc:title></dc:title></cc:Work></rdf:RDF></metadata><defs
     id="defs6"><clipPath
       clipPathUnits="userSpaceOnUse"
       id="clipPath58"><path
         d="M 0,980 1400,980 1400,0 0,0 0,980 Z"
         id="path60"
         inkscape:connector-curvature="0" /></clipPath><clipPath
       clipPathUnits="userSpaceOnUse"
       id="clipPath78"><path
         d="m 71.9106,582.282 103.2334,0 0,-216.531 -103.2334,0 0,216.531 z"
         id="path80"
         inkscape:connector-curvature="0" /></clipPath><clipPath
       clipPathUnits="userSpaceOnUse"
       id="clipPath174"><path
         d="m 30,968.454 115.486,0 0,-360.034 -115.486,0 0,360.034 z"
         id="path176"
         inkscape:connector-curvature="0" /></clipPath><clipPath
       clipPathUnits="userSpaceOnUse"
       id="clipPath206"><path
         d="m 293.543,226.125 96.494,0 0,-216.53125 -96.494,0 0,216.53125 z"
         id="path208"
         inkscape:connector-curvature="0" /></clipPath><clipPath
       clipPathUnits="userSpaceOnUse"
       id="clipPath294"><path
         d="m 242.995,624.888 120.904,0 0,-348.825 -120.904,0 0,348.825 z"
         id="path296"
         inkscape:connector-curvature="0" /></clipPath><clipPath
       clipPathUnits="userSpaceOnUse"
       id="clipPath326"><path
         d="m 532.688,562.649 103.233,0 0,-216.53 -103.233,0 0,216.53 z"
         id="path328"
         inkscape:connector-curvature="0" /></clipPath><clipPath
       clipPathUnits="userSpaceOnUse"
       id="clipPath434"><path
         d="m 457,968.454 202.938,0 0,-387.905 -202.938,0 0,387.905 z"
         id="path436"
         inkscape:connector-curvature="0" /></clipPath><clipPath
       clipPathUnits="userSpaceOnUse"
       id="clipPath470"><path
         d="m 1009.83,574.779 87.84,0 0,-216.531 -87.84,0 0,216.531 z"
         id="path472"
         inkscape:connector-curvature="0" /></clipPath><clipPath
       clipPathUnits="userSpaceOnUse"
       id="clipPath562"><path
         d="m 959.72,968.454 116.73,0 0,-354.643 -116.73,0 0,354.643 z"
         id="path564"
         inkscape:connector-curvature="0" /></clipPath><clipPath
       clipPathUnits="userSpaceOnUse"
       id="clipPath598"><path
         d="m 777.513,277.034 103.232,0 0,-216.5311 -103.232,0 0,216.5311 z"
         id="path600"
         inkscape:connector-curvature="0" /></clipPath><clipPath
       clipPathUnits="userSpaceOnUse"
       id="clipPath710"><path
         d="m 723,601.888 129.312,0 0,-309.264 -129.312,0 0,309.264 z"
         id="path712"
         inkscape:connector-curvature="0" /></clipPath><clipPath
       clipPathUnits="userSpaceOnUse"
       id="clipPath786"><path
         d="m 1216.96,250.711 116.41,0 0,-221.8751 -116.41,0 0,221.8751 z"
         id="path788"
         inkscape:connector-curvature="0" /></clipPath><clipPath
       clipPathUnits="userSpaceOnUse"
       id="clipPath830"><path
         d="m 1180,624.888 107.99,0 0,-364.05 -107.99,0 0,364.05 z"
         id="path832"
         inkscape:connector-curvature="0" /></clipPath></defs><sodipodi:namedview
     pagecolor="#ffffff"
     bordercolor="#666666"
     borderopacity="1"
     objecttolerance="10"
     gridtolerance="10"
     guidetolerance="10"
     inkscape:pageopacity="0"
     inkscape:pageshadow="2"
     inkscape:window-width="1440"
     inkscape:window-height="829"
     id="namedview4"
     showgrid="false"
     fit-margin-top="4"
     fit-margin-left="4"
     fit-margin-bottom="4"
     fit-margin-right="4"
     inkscape:zoom="2.1796206"
     inkscape:cx="177.99616"
     inkscape:cy="82.495623"
     inkscape:window-x="0"
     inkscape:window-y="26"
     inkscape:window-maximized="1"
     inkscape:current-layer="g56" /><g
     id="g10"
     inkscape:groupmode="layer"
     inkscape:label="spaceships"
     transform="matrix(1.25,0,0,-1.25,-12.379221,1215.8995)"><g
       id="g54"
       transform="translate(-901.10171,465.08475)"><g
         id="g56"
         clip-path="url(#clipPath58)"><g
           id="g726"
           transform="matrix(0,0.71027761,-0.71027761,0,1115.4898,391.91447)"
           inkscape:transform-center-x="-24.929838"
           inkscape:transform-center-y="64.687198"><path
             d="m 0,0 c -6.679,57.742 0,108.581 0,108.581 -4.994,2.871 -8.911,8.791 -11.181,12.901 -1.256,-12.355 -1.958,-25.105 -1.958,-38.158 0,-38.369 1.07,-69.372 3.154,-94.434 C -5.968,-5.106 0,0 0,0"
             style="fill:#8c1f1f;fill-opacity:1;fill-rule:nonzero;stroke:none"
             id="path728"
             inkscape:connector-curvature="0" /></g><g
           id="g730"
           transform="matrix(0,0.71027761,-0.71027761,0,1029.0378,488.06972)"
           inkscape:transform-center-x="-24.957548"
           inkscape:transform-center-y="-57.227956"><path
             d="m 0,0 c -2.249,-4.117 -6.221,-10.21 -11.31,-13.135 0,0 6.679,-50.839 0,-108.581 0,0 6.164,-5.275 10.18,-11.406 2.102,25.113 3.178,56.212 3.178,94.73 C 2.048,-25.258 1.313,-12.429 0,0"
             style="fill:#8c1f1f;fill-opacity:1;fill-rule:nonzero;stroke:none"
             id="path732"
             inkscape:connector-curvature="0" /></g><g
           id="g734"
           transform="matrix(0,0.71027761,-0.71027761,0,1115.4898,480.03676)"
           inkscape:transform-center-x="1.5000364"
           inkscape:transform-center-y="3.7206165"
           style="fill:#ff4646;fill-opacity:1"><path
             d="m 0,0 c 6.679,57.742 0,108.581 0,108.581 5.089,2.925 9.061,9.018 11.31,13.135 -0.805625,7.62588 -1.8334375,15.09719 -3.05325,22.38725 -1.2198125,7.29007 -5.2153778,8.19788 -6.7890028,15.09877 -1.57362501,6.90089 -0.7253097,19.79486 -2.5923722,26.25321 -1.8670625,6.45835 -3.86575,12.68208 -5.965875,18.64452 -2.100125,5.96244 -4.301687,11.66358 -6.5745,17.07674 -2.272812,5.41316 -4.616875,10.53834 -7.002,15.34885 -2.385125,4.81052 -4.811312,9.30637 -7.248375,13.46087 -2.437063,4.15451 -4.885,7.96767 -7.313625,11.41279 -7.639,-1.232 -16.97,-1.562 -27.055,-1.562 -10.11,0 -19.463,0.332 -27.112,1.571 -2.441875,-3.44925 -4.892625,-7.26756 -7.324014,-11.42815 -2.431388,-4.16058 -2.259663,-14.3477 -4.624096,-19.16605 -2.36443,-4.81834 -1.58075,-16.15317 -3.82175,-21.57569 -2.241,-5.42253 -7.50667,-4.93274 -9.56776,-10.90587 -2.0611,-5.97312 -6.60187,-6.5239 -8.42659,-12.99404 -1.82472,-6.47015 -3.51713,-13.17542 -5.04899,-20.08901 -1.53187,-6.9136 -2.90319,-14.03552 -4.08574,-21.33898 -1.18254,-7.30346 -2.17631,-14.78846 -2.95306,-22.42821 2.269,-4.11 6.186,-10.03 11.181,-12.901 0,0 -6.679,-50.839 0,-108.581 0,0 -5.968,-5.24 -9.986,-11.244 3.319,-39.849 9.207,-64.255 17.474,-80.255 l 0.045,0 c -0.018,0 -0.045,0.261 -0.045,0.324 0,3.217 24.47,5.893 54.653,5.893 30.187,0 54.656,-2.709 54.656,-5.926 0,-0.063 -0.027,-0.291 -0.044,-0.291 l 0.044,0 c 8.247,16 14.127,40.282 17.45,79.959 C 6.164,-5.409 0,0 0,0"
             style="fill:#ff4646;fill-opacity:1;fill-rule:nonzero;stroke:none"
             id="path736"
             inkscape:connector-curvature="0"
             sodipodi:nodetypes="cccssssssscscsssssssccccccssscccc" /></g><g
           id="g738"
           transform="matrix(0,0.71027761,-0.71027761,0,929.82369,455.01475)"
           inkscape:transform-center-x="167.22411"
           inkscape:transform-center-y="4.0251421"><path
             d="m 0,0 c -2.47725,3.51375 -4.934125,6.6449375 -7.3385156,9.3652344 -2.4043907,2.7202966 -6.3065494,0.8956986 -8.5738614,2.7658856 -2.267313,1.870187 -2.899779,4.334658 -4.965795,5.29808 -2.066015,0.963422 -4.015328,4.5598 -5.815828,4.5598 -1.93325,0 -3.99525,-0.495625 -6.156219,-1.458594 -2.160969,-0.962969 -4.420906,-2.393281 -6.750031,-4.262656 -2.329125,-1.869375 -2.143685,-5.728065 -4.581403,-8.447283 C -46.619372,5.1012483 -51.68025,3.5215 -54.167,0.009 c 1.912,-0.30975 3.930625,-0.5628125 6.041016,-0.76817187 2.11039,-0.20535938 4.312546,-0.36301563 6.591609,-0.48195313 2.279062,-0.1189375 4.635031,-0.1991563 7.053047,-0.2496406 C -32.063313,-1.54125 -29.58325,-1.562 -27.056,-1.562 c 2.52125,0 4.995375,0.020625 7.407734,0.070812 2.41236,0.050188 4.762954,0.1299375 7.037141,0.2481875 2.274188,0.11825 4.4719688,0.275 6.5787031,0.4791875 C -3.9256875,-0.559625 -1.91,-0.308 0,0"
             style="fill:#8c1f1f;fill-opacity:1;fill-rule:nonzero;stroke:none"
             id="path740"
             inkscape:connector-curvature="0"
             sodipodi:nodetypes="cssssssscsssssssc" /></g><g
           id="g742"
           transform="matrix(0,1,-1,0,1294.7228,408.15898)"
           inkscape:transform-center-x="-221.97363"
           inkscape:transform-center-y="5.1823763" /><g
           id="g750"
           transform="matrix(0,0.71027761,-0.71027761,0,990.80779,453.50916)"
           inkscape:transform-center-x="57.878738"
           inkscape:transform-center-y="10.911779"><path
             d="m 0,0 c -5.806,3.683 -12.688,5.826 -20.072,5.826 -20.719,0 -37.518,-16.798 -37.518,-37.519 0,-14.114 7.802,-26.405 19.322,-32.808 40.207,8.261 52.968512,-0.516047 49.636512,21.093953"
             style="fill:#171d2d;fill-opacity:1;fill-rule:nonzero;stroke:none"
             id="path752"
             inkscape:connector-curvature="0"
             sodipodi:nodetypes="csscc" /></g><g
           id="g754"
           transform="matrix(0,0.71027761,-0.71027761,0,989.20779,450.30916)"
           inkscape:transform-center-x="53.20156"
           inkscape:transform-center-y="-4.8954997"><path
             d="m 0,0 c 3.332,-21.61 1.939,-56.24 -38.268,-64.501 5.389,-2.998 11.592,-4.71 18.196,-4.71 20.721,0 37.518,16.798 37.518,37.518 C 17.446,-18.356 10.483,-6.654 0,0"
             style="fill:#000000;fill-opacity:1;fill-rule:nonzero;stroke:none"
             id="path756"
             inkscape:connector-curvature="0" /></g><g
           id="g758"
           transform="matrix(0,0.71027761,-0.71027761,0,989.58097,436.05225)"
           inkscape:transform-center-x="55.787503"
           inkscape:transform-center-y="3.6818186"><path
             d="m 0,0 c -17.185,0 -31.166,-13.982 -31.166,-31.167 0,-17.185 13.981,-31.167 31.166,-31.167 17.188,0 31.167,13.982 31.167,31.167 C 31.167,-13.982 17.188,0 0,0 m 0,-75.038 c -24.188,0 -43.869,19.68 -43.869,43.871 0,24.19 19.681,43.87 43.869,43.87 24.191,0 43.87,-19.68 43.87,-43.87 0,-24.191 -19.679,-43.871 -43.87,-43.871"
             style="fill:#8c1f1f;fill-opacity:1;fill-rule:nonzero;stroke:none"
             id="path760"
             inkscape:connector-curvature="0" /></g><g
           id="g762"
           transform="matrix(0,0.71027761,-0.71027761,0,1131.8949,480.03676)"
           inkscape:transform-center-x="-132.36931"
           inkscape:transform-center-y="-63.984407"><path
             d="m 0,0 27.168494,-23.977247 c 0,0 -4.099015,-33.827263 -10.783494,-61.479753 l -22.158,39.265"
             style="fill:#8c1f1f;fill-opacity:1;fill-rule:nonzero;stroke:none"
             id="path764"
             inkscape:connector-curvature="0"
             sodipodi:nodetypes="cccc" /></g><g
           id="g766"
           transform="matrix(0,0.71027761,-0.71027761,0,1131.8949,392.06014)"
           inkscape:transform-center-x="-132.36931"
           inkscape:transform-center-y="71.357804"><path
             d="m 0,0 -7.5669994,-7.5445635 -7.5669996,-7.5445635 -6.533498,-13.74557 -8.08375,-13.22882 c 0,0 0.480762,-17.807995 13.364247,-43.393483 l 22.161,39.265"
             style="fill:#8c1f1f;fill-opacity:1;fill-rule:nonzero;stroke:none"
             id="path768"
             inkscape:connector-curvature="0"
             sodipodi:nodetypes="ccccccc" /></g><g
           id="g770"
           transform="matrix(0,0.71027761,-0.71027761,0,937.49518,439.05985)"
           inkscape:transform-center-x="148.56672"
           inkscape:transform-center-y="4.0241718"><path
             d="m 0,0 c 0,-2.551 -2.068,-4.619 -4.619,-4.619 -2.552,0 -4.62,2.068 -4.62,4.619 0,2.551 2.068,4.619 4.62,4.619 C -2.068,4.619 0,2.551 0,0"
             style="fill:#8c1f1f;fill-opacity:1;fill-rule:nonzero;stroke:none"
             id="path772"
             inkscape:connector-curvature="0" /></g><g
           id="g774"
           transform="matrix(0,0.71027761,-0.71027761,0,936.67502,453.82447)"
           inkscape:transform-center-x="149.59237"
           inkscape:transform-center-y="-14.431603"><path
             d="m 0,0 c 0,-2.551 -2.068,-4.619 -4.62,-4.619 -2.551,0 -4.619,2.068 -4.619,4.619 0,2.551 2.068,4.62 4.619,4.62 C -2.068,4.62 0,2.551 0,0"
             style="fill:#8c1f1f;fill-opacity:1;fill-rule:nonzero;stroke:none"
             id="path776"
             inkscape:connector-curvature="0" /></g><g
           id="g778"
           transform="matrix(0,0.71027761,-0.71027761,0,936.67502,424.29524)"
           inkscape:transform-center-x="149.59237"
           inkscape:transform-center-y="22.47949"><path
             d="m 0,0 c 0,-2.551 -2.068,-4.619 -4.619,-4.619 -2.552,0 -4.619,2.068 -4.619,4.619 0,2.551 2.067,4.62 4.619,4.62 C -2.068,4.62 0,2.551 0,0"
             style="fill:#8c1f1f;fill-opacity:1;fill-rule:nonzero;stroke:none"
             id="path780"
             inkscape:connector-curvature="0" /></g><g
           id="g822"
           transform="matrix(0,0.71027761,-0.71027761,0,1081.4492,412.41194)"
           inkscape:transform-center-x="-50.030859"
           inkscape:transform-center-y="3.4897751"><path
             d="m 0,0 c 0,0 35,8.084 67,0 l 0,-45.616 c 0,0 -33,5.697 -67,0 L 0,0 Z"
             style="fill:#8c1f1f;fill-opacity:1;fill-rule:nonzero;stroke:none"
             id="path824"
             inkscape:connector-curvature="0" /></g><g
           id="g826"
           transform="matrix(0,0.71027761,-0.71027761,0,1358.0489,-470.46313)"
           inkscape:transform-center-x="16.068976"
           inkscape:transform-center-y="41.225275"><g
             id="g828" /><g
             id="g834"><g
               clip-path="url(#clipPath830)"
               id="g836"
               style="opacity:0.10000598"><g
                 transform="translate(1287.9922,619.6538)"
                 id="g838"><path
                   d="m 0,0 c -4.293,3.411 -8.272,5.234 -11.706,5.234 -7.732,0 -17.525,-7.931 -27.473,-21.981 -4.88375,-6.8985 -6.702497,-21.991007 -11.431356,-31.627679 -4.728859,-9.636672 -1.51607,-12.784007 -5.638257,-24.730195 -4.122188,-11.946187 -11.962098,2.447811 -21.74359,-39.800516 -3.194435,-13.79744 -5.485297,-28.48736 -7.038797,-43.76661 -1.256,-12.356 -1.958,-25.106 -1.958,-38.159 0,-38.369 1.069,-69.372 3.153,-94.434 4.018,6.004 9.985,11.11 9.985,11.11 0,0 -5.967,-5.24 -9.985,-11.244 0.554,-6.649 1.181,-12.859 1.877,-18.682 l -24.021,-19.731 c 0,0 -5.272,-11.179 1.265,-31.004 C -48.674,-308.046 -11.781,-82.228 0,0"
                   style="fill:#000000;fill-opacity:1;fill-rule:nonzero;stroke:none"
                   id="path840"
                   inkscape:connector-curvature="0"
                   sodipodi:nodetypes="cscssscsccccccc" /></g></g></g></g><path
           style="fill:#8c1f1f;fill-opacity:1;fill-rule:evenodd;stroke:none;stroke-width:0.80000001px;stroke-linecap:butt;stroke-linejoin:miter;stroke-opacity:1"
           d="m 1176.051,443.52778 c 0,0 -0.1818,27.55446 3.1363,30.96537 3.3181,3.41092 4.4242,-10.53366 4.4242,-10.53366 l -1.4986,0.27192 c 0,0 -1.1805,0.30932 -1.8459,0.12969 -0.6653,-0.17962 -1.4025,-1.22712 -2.1857,-3.70109 -1.3149,-4.15357 -2.0303,-17.13223 -2.0303,-17.13223 z"
           id="path3397"
           inkscape:connector-curvature="0"
           sodipodi:nodetypes="csccssc" /><path
           style="fill:#8c1f1f;fill-opacity:1;fill-rule:evenodd;stroke:none;stroke-width:0.80000001px;stroke-linecap:butt;stroke-linejoin:miter;stroke-opacity:1"
           d="m 1176.1029,437.37189 c 0,0 -0.1818,-35.0988 3.1363,-39.44361 3.3181,-4.34482 4.4242,13.41775 4.4242,13.41775 l -1.4986,-0.34637 c 0,0 -1.1805,-0.39401 -1.8459,-0.1652 -0.6653,0.2288 -1.4025,1.56311 -2.1857,4.71444 -1.3149,5.29081 -2.0303,21.82299 -2.0303,21.82299 z"
           id="path3397-1"
           inkscape:connector-curvature="0"
           sodipodi:nodetypes="csccssc" /><path
           style="fill:none;fill-rule:evenodd;stroke:#5b5b5b;stroke-width:0.80000001px;stroke-linecap:butt;stroke-linejoin:miter;stroke-opacity:1"
           d="m 993.22124,447.77961 3.30333,-3.30332 -2.20222,-3.67037 2.93629,-1.46814 -0.36704,-2.20222 2.20222,-0.73407 2.56928,-2.56926"
           id="path4207"
           inkscape:connector-curvature="0" /></g></g></g></svg>