<?xml version="1.0" encoding="UTF-8" standalone="no"?>
<!-- Created with Inkscape (http://www.inkscape.org/) -->

<svg
   xmlns:dc="http://purl.org/dc/elements/1.1/"
   xmlns:cc="http://creativecommons.org/ns#"
   xmlns:rdf="http://www.w3.org/1999/02/22-rdf-syntax-ns#"
   xmlns:svg="http://www.w3.org/2000/svg"
   xmlns="http://www.w3.org/2000/svg"
   xmlns:sodipodi="http://sodipodi.sourceforge.net/DTD/sodipodi-0.dtd"
   xmlns:inkscape="http://www.inkscape.org/namespaces/inkscape"
   id="svg2"
   version="1.1"
   inkscape:version="0.91 r13725"
   xml:space="preserve"
   width="355.98502"
   height="178.96561"
   viewBox="0 0 355.98502 178.9656"
   sodipodi:docname="nave.svg"
   inkscape:export-filename="/home/alumno/Escritorio/ejemploPILAS/imagenes/lanave.png"
   inkscape:export-xdpi="90"
   inkscape:export-ydpi="90"><metadata
     id="metadata8"><rdf:RDF><cc:Work
         rdf:about=""><dc:format>image/svg+xml</dc:format><dc:type
           rdf:resource="http://purl.org/dc/dcmitype/StillImage" /><dc:title /></cc:Work></rdf:RDF></metadata><defs
     id="defs6"><clipPath
       clipPathUnits="userSpaceOnUse"
       id="clipPath58"><path
         d="M 0,980 1400,980 1400,0 0,0 0,980 Z"
         id="path60"
         inkscape:connector-curvature="0" /></clipPath><clipPath
       clipPathUnits="userSpaceOnUse"
       id="clipPath78"><path
         d="m 71.9106,582.282 103.2334,0 0,-216.531 -103.2334,0 0,216.531 z"
         id="path80"
         inkscape:connector-curvature="0" /></clipPath><clipPath
       clipPathUnits="userSpaceOnUse"
       id="clipPath174"><path
         d="m 30,968.454 115.486,0 0,-360.034 -115.486,0 0,360.034 z"
         id="path176"
         inkscape:connector-curvature="0" /></clipPath><clipPath
       clipPathUnits="userSpaceOnUse"
       id="clipPath206"><path
         d="m 293.543,226.125 96.494,0 0,-216.53125 -96.494,0 0,216.53125 z"
         id="path208"
         inkscape:connector-curvature="0" /></clipPath><clipPath
       clipPathUnits="userSpaceOnUse"
       id="clipPath294"><path
         d="m 242.995,624.888 120.904,0 0,-348.825 -120.904,0 0,348.825 z"
         id="path296"
         inkscape:connector-curvature="0" /></clipPath><clipPath
       clipPathUnits="userSpaceOnUse"
       id="clipPath326"><path
         d="m 532.688,562.649 103.233,0 0,-216.53 -103.233,0 0,216.53 z"
         id="path328"
         inkscape:connector-curvature="0" /></clipPath><clipPath
       clipPathUnits="userSpaceOnUse"
       id="clipPath434"><path
         d="m 457,968.454 202.938,0 0,-387.905 -202.938,0 0,387.905 z"
         id="path436"
         inkscape:connector-curvature="0" /></clipPath><clipPath
       clipPathUnits="userSpaceOnUse"
       id="clipPath470"><path
         d="m 1009.83,574.779 87.84,0 0,-216.531 -87.84,0 0,216.531 z"
         id="path472"
         inkscape:connector-curvature="0" /></clipPath><clipPath
       clipPathUnits="userSpaceOnUse"
       id="clipPath562"><path
         d="m 959.72,968.454 116.73,0 0,-354.643 -116.73,0 0,354.643 z"
         id="path564"
         inkscape:connector-curvature="0" /></clipPath><clipPath
       clipPathUnits="userSpaceOnUse"
       id="clipPath598"><path
         d="m 777.513,277.034 103.232,0 0,-216.5311 -103.232,0 0,216.5311 z"
         id="path600"
         inkscape:connector-curvature="0" /></clipPath><clipPath
       clipPathUnits="userSpaceOnUse"
       id="clipPath710"><path
         d="m 723,601.888 129.312,0 0,-309.264 -129.312,0 0,309.264 z"
         id="path712"
         inkscape:connector-curvature="0" /></clipPath><clipPath
       clipPathUnits="userSpaceOnUse"
       id="clipPath786"><path
         d="m 1216.96,250.711 116.41,0 0,-221.8751 -116.41,0 0,221.8751 z"
         id="path788"
         inkscape:connector-curvature="0" /></clipPath><clipPath
       clipPathUnits="userSpaceOnUse"
       id="clipPath830"><path
         d="m 1180,624.888 107.99,0 0,-364.05 -107.99,0 0,364.05 z"
         id="path832"
         inkscape:connector-curvature="0" /></clipPath></defs><sodipodi:namedview
     pagecolor="#ffffff"
     bordercolor="#666666"
     borderopacity="1"
     objecttolerance="10"
     gridtolerance="10"
     guidetolerance="10"
     inkscape:pageopacity="0"
     inkscape:pageshadow="2"
     inkscape:window-width="1433"
     inkscape:window-height="822"
     id="namedview4"
     showgrid="false"
     fit-margin-top="4"
     fit-margin-left="4"
     fit-margin-bottom="4"
     fit-margin-right="4"
     inkscape:zoom="4.3592412"
     inkscape:cx="301.83423"
     inkscape:cy="83.027385"
     inkscape:window-x="0"
     inkscape:window-y="25"
     inkscape:window-maximized="1"
     inkscape:current-layer="g56" /><g
     id="g10"
     inkscape:groupmode="layer"
     inkscape:label="spaceships"
     transform="matrix(1.25,0,0,-1.25,-12.379221,1215.8995)"><g
       id="g54"
       transform="translate(-901.10171,465.08475)"><g
         id="g56"
         clip-path="url(#clipPath58)"><g
           id="g726"
           transform="matrix(0,0.71027761,-0.71027761,0,1115.4898,391.91447)"
           inkscape:transform-center-x="-24.929838"
           inkscape:transform-center-y="64.687198"><path
             d="m 0,0 c -6.679,57.742 0,108.581 0,108.581 -4.994,2.871 -8.911,8.791 -11.181,12.901 -1.256,-12.355 -1.958,-25.105 -1.958,-38.158 0,-38.369 1.07,-69.372 3.154,-94.434 C -5.968,-5.106 0,0 0,0"
             style="fill:#8c1f1f;fill-opacity:1;fill-rule:nonzero;stroke:none"
             id="path728"
             inkscape:connector-curvature="0" /></g><g
           id="g730"
           transform="matrix(0,0.71027761,-0.71027761,0,1029.0378,488.06972)"
           inkscape:transform-center-x="-24.957548"
           inkscape:transform-center-y="-57.227956"><path
             d="m 0,0 c -2.249,-4.117 -6.221,-10.21 -11.31,-13.135 0,0 6.679,-50.839 0,-108.581 0,0 6.164,-5.275 10.18,-11.406 2.102,25.113 3.178,56.212 3.178,94.73 C 2.048,-25.258 1.313,-12.429 0,0"
             style="fill:#8c1f1f;fill-opacity:1;fill-rule:nonzero;stroke:none"
             id="path732"
             inkscape:connector-curvature="0" /></g><g
           id="g734"
           transform="matrix(0,0.71027761,-0.71027761,0,1115.4898,480.03676)"
           inkscape:transform-center-x="1.5000364"
           inkscape:transform-center-y="3.7206165"
           style="fill:#ff4646;fill-opacity:1"><path
             d="m 0,0 c 6.679,57.742 0,108.581 0,108.581 5.089,2.925 9.061,9.018 11.31,13.135 -6.445,61.007 -27.11,112.122 -46.539,139.683 -7.639,-1.232 -16.97,-1.562 -27.055,-1.562 -10.11,0 -19.463,0.332 -27.112,1.571 -19.535,-27.594 -39.638,-78.808 -45.852,-139.926 2.269,-4.11 6.186,-10.03 11.181,-12.901 0,0 -6.679,-50.839 0,-108.581 0,0 -5.968,-5.24 -9.986,-11.244 3.319,-39.849 9.207,-64.255 17.474,-80.255 l 0.045,0 c -0.018,0 -0.045,0.261 -0.045,0.324 0,3.217 24.47,5.893 54.653,5.893 30.187,0 54.656,-2.709 54.656,-5.926 0,-0.063 -0.027,-0.291 -0.044,-0.291 l 0.044,0 c 8.247,16 14.127,40.282 17.45,79.959 C 6.164,-5.409 0,0 0,0"
             style="fill:#ff4646;fill-opacity:1;fill-rule:nonzero;stroke:none"
             id="path736"
             inkscape:connector-curvature="0" /></g><g
           id="g738"
           transform="matrix(0,0.71027761,-0.71027761,0,929.82369,455.01475)"
           inkscape:transform-center-x="167.22411"
           inkscape:transform-center-y="4.0251421"><path
             d="m 0,0 c -9.909,14.055 -19.492,21.989 -26.694,21.989 -7.733,0 -17.526,-7.93 -27.473,-21.98 7.648,-1.239 17.002,-1.571 27.111,-1.571 10.085,0 19.416,0.33 27.056,1.562"
             style="fill:#8c1f1f;fill-opacity:1;fill-rule:nonzero;stroke:none"
             id="path740"
             inkscape:connector-curvature="0" /></g><g
           id="g742"
           transform="matrix(0,1,-1,0,1294.7228,408.15898)"
           inkscape:transform-center-x="-221.97363"
           inkscape:transform-center-y="5.1823763" /><g
           id="g750"
           transform="matrix(0,0.71027761,-0.71027761,0,989.20779,450.30916)"
           inkscape:transform-center-x="57.878738"
           inkscape:transform-center-y="10.911779"><path
             d="m 0,0 c -5.806,3.683 -12.688,5.826 -20.072,5.826 -20.719,0 -37.518,-16.798 -37.518,-37.519 0,-14.114 7.802,-26.405 19.322,-32.808 C 1.939,-56.24 3.332,-21.61 0,0"
             style="fill:#171d2d;fill-opacity:1;fill-rule:nonzero;stroke:none"
             id="path752"
             inkscape:connector-curvature="0" /></g><g
           id="g754"
           transform="matrix(0,0.71027761,-0.71027761,0,989.20779,450.30916)"
           inkscape:transform-center-x="53.20156"
           inkscape:transform-center-y="-4.8954997"><path
             d="m 0,0 c 3.332,-21.61 1.939,-56.24 -38.268,-64.501 5.389,-2.998 11.592,-4.71 18.196,-4.71 20.721,0 37.518,16.798 37.518,37.518 C 17.446,-18.356 10.483,-6.654 0,0"
             style="fill:#000000;fill-opacity:1;fill-rule:nonzero;stroke:none"
             id="path756"
             inkscape:connector-curvature="0" /></g><g
           id="g758"
           transform="matrix(0,0.71027761,-0.71027761,0,989.58097,436.05225)"
           inkscape:transform-center-x="55.787503"
           inkscape:transform-center-y="3.6818186"><path
             d="m 0,0 c -17.185,0 -31.166,-13.982 -31.166,-31.167 0,-17.185 13.981,-31.167 31.166,-31.167 17.188,0 31.167,13.982 31.167,31.167 C 31.167,-13.982 17.188,0 0,0 m 0,-75.038 c -24.188,0 -43.869,19.68 -43.869,43.871 0,24.19 19.681,43.87 43.869,43.87 24.191,0 43.87,-19.68 43.87,-43.87 0,-24.191 -19.679,-43.871 -43.87,-43.871"
             style="fill:#8c1f1f;fill-opacity:1;fill-rule:nonzero;stroke:none"
             id="path760"
             inkscape:connector-curvature="0" /></g><g
           id="g762"
           transform="matrix(0,0.71027761,-0.71027761,0,1131.8949,480.03676)"
           inkscape:transform-center-x="-132.36931"
           inkscape:transform-center-y="-63.984407"><path
             d="m 0,0 32.336,-26.561 c 0,0 10.37,-21.942 -15.951,-58.896 l -22.158,39.265"
             style="fill:#8c1f1f;fill-opacity:1;fill-rule:nonzero;stroke:none"
             id="path764"
             inkscape:connector-curvature="0" /></g><g
           id="g766"
           transform="matrix(0,0.71027761,-0.71027761,0,1131.8949,392.06014)"
           inkscape:transform-center-x="-132.36931"
           inkscape:transform-center-y="71.357804"><path
             d="m 0,0 -32.335,-26.561 c 0,0 -10.371,-21.942 15.948,-58.896 l 22.161,39.265"
             style="fill:#8c1f1f;fill-opacity:1;fill-rule:nonzero;stroke:none"
             id="path768"
             inkscape:connector-curvature="0" /></g><g
           id="g770"
           transform="matrix(0,0.71027761,-0.71027761,0,937.49518,439.05985)"
           inkscape:transform-center-x="148.56672"
           inkscape:transform-center-y="4.0241718"><path
             d="m 0,0 c 0,-2.551 -2.068,-4.619 -4.619,-4.619 -2.552,0 -4.62,2.068 -4.62,4.619 0,2.551 2.068,4.619 4.62,4.619 C -2.068,4.619 0,2.551 0,0"
             style="fill:#8c1f1f;fill-opacity:1;fill-rule:nonzero;stroke:none"
             id="path772"
             inkscape:connector-curvature="0" /></g><g
           id="g774"
           transform="matrix(0,0.71027761,-0.71027761,0,936.67502,453.82447)"
           inkscape:transform-center-x="149.59237"
           inkscape:transform-center-y="-14.431603"><path
             d="m 0,0 c 0,-2.551 -2.068,-4.619 -4.62,-4.619 -2.551,0 -4.619,2.068 -4.619,4.619 0,2.551 2.068,4.62 4.619,4.62 C -2.068,4.62 0,2.551 0,0"
             style="fill:#8c1f1f;fill-opacity:1;fill-rule:nonzero;stroke:none"
             id="path776"
             inkscape:connector-curvature="0" /></g><g
           id="g778"
           transform="matrix(0,0.71027761,-0.71027761,0,936.67502,424.29524)"
           inkscape:transform-center-x="149.59237"
           inkscape:transform-center-y="22.47949"><path
             d="m 0,0 c 0,-2.551 -2.068,-4.619 -4.619,-4.619 -2.552,0 -4.619,2.068 -4.619,4.619 0,2.551 2.067,4.62 4.619,4.62 C -2.068,4.62 0,2.551 0,0"
             style="fill:#8c1f1f;fill-opacity:1;fill-rule:nonzero;stroke:none"
             id="path780"
             inkscape:connector-curvature="0" /></g><g
           id="g822"
           transform="matrix(0,0.71027761,-0.71027761,0,1081.4492,412.41194)"
           inkscape:transform-center-x="-50.030859"
           inkscape:transform-center-y="3.4897751"><path
             d="m 0,0 c 0,0 35,8.084 67,0 l 0,-45.616 c 0,0 -33,5.697 -67,0 L 0,0 Z"
             style="fill:#8c1f1f;fill-opacity:1;fill-rule:nonzero;stroke:none"
             id="path824"
             inkscape:connector-curvature="0" /></g><g
           id="g826"
           transform="matrix(0,0.71027761,-0.71027761,0,1358.0489,-470.46313)"
           inkscape:transform-center-x="16.068976"
           inkscape:transform-center-y="41.225275"><g
             id="g828" /><g
             id="g834"><g
               clip-path="url(#clipPath830)"
               id="g836"
               style="opacity:0.10000598"><g
                 transform="translate(1287.9922,619.6538)"
                 id="g838"><path
                   d="m 0,0 c -4.293,3.411 -8.272,5.234 -11.706,5.234 -7.732,0 -17.525,-7.931 -27.473,-21.981 -19.535,-27.594 -39.638,-78.808 -45.852,-139.925 -1.256,-12.356 -1.958,-25.106 -1.958,-38.159 0,-38.369 1.069,-69.372 3.153,-94.434 4.018,6.004 9.985,11.11 9.985,11.11 0,0 -5.967,-5.24 -9.985,-11.244 0.554,-6.649 1.181,-12.859 1.877,-18.682 l -24.021,-19.731 c 0,0 -5.272,-11.179 1.265,-31.004 C -48.674,-308.046 -11.781,-82.228 0,0"
                   style="fill:#000000;fill-opacity:1;fill-rule:nonzero;stroke:none"
                   id="path840"
                   inkscape:connector-curvature="0" /></g></g></g></g><path
           style="fill:#8c1f1f;fill-opacity:1;fill-rule:evenodd;stroke:none;stroke-width:0.80000001px;stroke-linecap:butt;stroke-linejoin:miter;stroke-opacity:1"
           d="m 1176.051,443.52778 c 0,0 -0.1818,27.55446 3.1363,30.96537 3.3181,3.41092 4.4242,-10.53366 4.4242,-10.53366 l -1.4986,0.27192 c 0,0 -1.1805,0.30932 -1.8459,0.12969 -0.6653,-0.17962 -1.4025,-1.22712 -2.1857,-3.70109 -1.3149,-4.15357 -2.0303,-17.13223 -2.0303,-17.13223 z"
           id="path3397"
           inkscape:connector-curvature="0"
           sodipodi:nodetypes="csccssc" /><ellipse
           style="fill:#808080;fill-opacity:1;stroke:none;stroke-width:2.0999999;stroke-miterlimit:4;stroke-dasharray:none;stroke-dashoffset:0;stroke-opacity:1"
           id="path4196"
           cx="1212.0667"
           cy="-441.35648"
           transform="scale(1,-1)"
           rx="4.8632317"
           ry="26.610134" /><ellipse
           style="fill:#999999;fill-opacity:1;stroke:none;stroke-width:2.0999999;stroke-miterlimit:4;stroke-dasharray:none;stroke-dashoffset:0;stroke-opacity:1"
           id="path4196-3"
           cx="1212.868"
           cy="-448.60544"
           rx="3.3707225"
           ry="18.443575"
           transform="scale(1,-1)" /><ellipse
           style="fill:#b3b3b3;fill-opacity:0.66666669;stroke:none;stroke-width:2.0999999;stroke-miterlimit:4;stroke-dasharray:none;stroke-dashoffset:0;stroke-opacity:1"
           id="path4196-3-4"
           cx="1212.8926"
           cy="-434.38278"
           rx="3.3707225"
           ry="18.443575"
           transform="scale(1,-1)" /><path
           style="fill:#8c1f1f;fill-opacity:1;fill-rule:evenodd;stroke:none;stroke-width:0.80000001px;stroke-linecap:butt;stroke-linejoin:miter;stroke-opacity:1"
           d="m 1176.1029,437.37189 c 0,0 -0.1818,-35.0988 3.1363,-39.44361 3.3181,-4.34482 4.4242,13.41775 4.4242,13.41775 l -1.4986,-0.34637 c 0,0 -1.1805,-0.39401 -1.8459,-0.1652 -0.6653,0.2288 -1.4025,1.56311 -2.1857,4.71444 -1.3149,5.29081 -2.0303,21.82299 -2.0303,21.82299 z"
           id="path3397-1"
           inkscape:connector-curvature="0"
           sodipodi:nodetypes="csccssc" /></g></g></g></svg>